<svg xmlns="http://www.w3.org/2000/svg" width="18" height="17.999" viewBox="0 0 18 17.999">
  <g id="Group_3532" data-name="Group 3532" transform="translate(-236.59 -381.904)">
    <path id="Path_3546" data-name="Path 3546" d="M253.466,393.157a1.119,1.119,0,0,0-1.131,1.118c-.006.751,0,1.5,0,2.251v1.122H238.841v-.205q0-1.521,0-3.043a2.138,2.138,0,0,0-.013-.278,1.047,1.047,0,0,0-.387-.7,1.127,1.127,0,0,0-1.849.881q0,2.205,0,4.409a1.122,1.122,0,0,0,1.2,1.193q1.528,0,3.058,0h12.5a1.756,1.756,0,0,0,.325-.019,1.121,1.121,0,0,0,.921-1.157q0-2.22,0-4.44A1.125,1.125,0,0,0,253.466,393.157Z" fill="#b2b2b2"/>
    <path id="Path_3547" data-name="Path 3547" d="M241.9,388.316c.812-.805,1.618-1.616,2.427-2.424.037-.037.077-.071.141-.131v.225q0,4.068,0,8.135c0,.088,0,.176.007.263a1.124,1.124,0,0,0,2.242-.149q0-4.129,0-8.258V385.8l.053-.035a1.753,1.753,0,0,0,.14.179q1.178,1.182,2.358,2.36a1.125,1.125,0,1,0,1.6-1.584q-2.2-2.2-4.4-4.4a1.134,1.134,0,0,0-1.747,0l-1.361,1.361q-1.524,1.525-3.049,3.052a1.124,1.124,0,1,0,1.588,1.591Z" fill="#b2b2b2"/>
  </g>
</svg>
