<svg xmlns="http://www.w3.org/2000/svg" width="40" height="39.997" viewBox="0 0 40 39.997">
  <g id="Group_3530" data-name="Group 3530" transform="translate(-292.258 -656.924)">
    <path id="Path_3544" data-name="Path 3544" d="M329.762,681.931a2.483,2.483,0,0,0-2.513,2.485c-.015,1.667,0,3.335,0,5v2.493H297.26v-.455q0-3.381,0-6.762a4.754,4.754,0,0,0-.029-.62,2.328,2.328,0,0,0-.86-1.56,2.5,2.5,0,0,0-4.108,1.957q-.009,4.9,0,9.8a2.494,2.494,0,0,0,2.658,2.652q3.4,0,6.8,0,13.886,0,27.77,0a3.929,3.929,0,0,0,.721-.041,2.491,2.491,0,0,0,2.048-2.572q.009-4.932,0-9.866A2.5,2.5,0,0,0,329.762,681.931Z" fill="#b2b2b2"/>
    <path id="Path_3545" data-name="Path 3545" d="M304.048,671.173c1.8-1.788,3.6-3.591,5.393-5.388.082-.081.17-.157.314-.29v.5q0,9.038,0,18.076c0,.2,0,.392.016.586a2.5,2.5,0,0,0,4.983-.331q0-9.177,0-18.353v-.4l.117-.078a3.927,3.927,0,0,0,.311.4q2.617,2.626,5.241,5.245a2.5,2.5,0,1,0,3.549-3.521q-4.881-4.9-9.774-9.781a2.522,2.522,0,0,0-3.882-.01q-1.512,1.514-3.024,3.024-3.389,3.39-6.775,6.782a2.5,2.5,0,1,0,3.528,3.536Z" fill="#b2b2b2"/>
  </g>
</svg>
