<svg xmlns="http://www.w3.org/2000/svg" width="20" height="20" viewBox="0 0 20 20">
  <g id="Group_3408" data-name="Group 3408" transform="translate(-819.604 -558.804)">
    <path id="Path_3430" data-name="Path 3430" d="M825.036,567.062a26.408,26.408,0,0,0,3.408,5.847c.366.5.753.981,1.154,1.5a33.353,33.353,0,0,0,3.934-5.936,11.7,11.7,0,0,0,1.263-3.757,5.233,5.233,0,1,0-10.42-.529A8.259,8.259,0,0,0,825.036,567.062Zm4.578-5.908a2.594,2.594,0,1,1-2.588,2.6A2.581,2.581,0,0,1,829.614,561.154Z" fill="#999"/>
    <path id="Path_3431" data-name="Path 3431" d="M839.11,574.642a5.009,5.009,0,0,0-1.191-.789,15.938,15.938,0,0,0-5.2-1.263.365.365,0,0,0-.265.141c-.314.409-.613.829-.915,1.247a1.959,1.959,0,0,0-.1.172,16.554,16.554,0,0,1,6.28,1.456c-.232.12-.388.214-.554.286a15.813,15.813,0,0,1-4.84,1.1,28.856,28.856,0,0,1-4.722.057,19.146,19.146,0,0,1-4.617-.8c-.492-.158-.963-.38-1.443-.573l.015-.108a16.7,16.7,0,0,1,6.222-1.417c-.351-.485-.693-.945-1.02-1.416a.3.3,0,0,0-.322-.149,19.449,19.449,0,0,0-4.255.895,5.659,5.659,0,0,0-2.052,1.115,1.229,1.229,0,0,0,0,2.014,5.256,5.256,0,0,0,1.245.8,16.682,16.682,0,0,0,5.465,1.267,29.787,29.787,0,0,0,5.53,0,19.161,19.161,0,0,0,4.7-.943,5.435,5.435,0,0,0,2.059-1.15A1.209,1.209,0,0,0,839.11,574.642Z" fill="#999"/>
    <path id="Path_3432" data-name="Path 3432" d="M829.572,565.022a1.272,1.272,0,1,0-1.233-1.29A1.258,1.258,0,0,0,829.572,565.022Z" fill="#999"/>
  </g>
</svg>
