<svg xmlns="http://www.w3.org/2000/svg" width="19.999" height="20.002" viewBox="0 0 19.999 20.002">
  <g id="Group_3406" data-name="Group 3406" transform="translate(-819.605 -318.551)">
    <path id="Path_3425" data-name="Path 3425" d="M839.465,336.125a9.912,9.912,0,0,0-6.2-7.756c-.083-.035-.163-.076-.256-.12a5.5,5.5,0,0,0,.579-7.947,5.417,5.417,0,0,0-7.381-.556,5.158,5.158,0,0,0-1.978,3.4,5.446,5.446,0,0,0,1.973,5.109,9.982,9.982,0,0,0-5.034,4.048,10.262,10.262,0,0,0-1.544,6.23h19.585c.132,0,.264.011.4.016v-1.364C839.559,336.834,839.53,336.476,839.465,336.125ZM825.94,323.979a3.657,3.657,0,1,1,3.647,3.674A3.637,3.637,0,0,1,825.94,323.979Zm-4.5,12.759a8.214,8.214,0,0,1,11.994-6.345,8,8,0,0,1,4.345,6.345Z" fill="#999"/>
  </g>
</svg>
