<svg xmlns="http://www.w3.org/2000/svg" width="20.16" height="20" viewBox="0 0 20.16 20">
  <g id="Group_3407" data-name="Group 3407" transform="translate(-819.525 -478.309)">
    <path id="Path_3426" data-name="Path 3426" d="M836.5,493.344c-.125-.033-.248-.07-.371-.108l-.178-.054L835,492.9c-.748-.221-1.5-.441-2.242-.671a1.676,1.676,0,0,0-.487-.079,1.286,1.286,0,0,0-.931.41c-.328.325-.622.631-.9.936a.826.826,0,0,1-.611.339.913.913,0,0,1-.384-.1,4.059,4.059,0,0,1-.833-.5c-.355-.286-.687-.605-1.007-.912l-.062-.06a40.494,40.494,0,0,1-3.218-3.618,1.79,1.79,0,0,1-.245-.411.925.925,0,0,1,.111-1,4.156,4.156,0,0,1,.448-.468c.092-.084.19-.163.288-.241s.192-.153.282-.236a1.366,1.366,0,0,0,.459-1.086,2.448,2.448,0,0,0-.069-.549c-.2-.753-.4-1.5-.611-2.252-.1-.37-.216-.739-.328-1.108l-.091-.3a.785.785,0,0,0-.6-.6,2.207,2.207,0,0,0-.322-.053c-.094-.007-.189-.01-.282-.01a3.092,3.092,0,0,0-2.132.814,4.994,4.994,0,0,0-1.681,4.436,8.08,8.08,0,0,0,.7,2.47,19.474,19.474,0,0,0,4.694,6.494,15,15,0,0,0,4.7,3.029,9.573,9.573,0,0,0,3.648.729,5.94,5.94,0,0,0,1.674-.258,3.12,3.12,0,0,0,1.7-1.115,3.156,3.156,0,0,0,.567-2.18,2.428,2.428,0,0,0-.245-1A.786.786,0,0,0,836.5,493.344Z" fill="#999"/>
    <path id="Path_3427" data-name="Path 3427" d="M839.5,486.686a10.081,10.081,0,0,0-3.455-5.953,10.434,10.434,0,0,0-6.884-2.424q-.315,0-.634.015a.563.563,0,0,0-.471.276.477.477,0,0,0-.039.533.4.4,0,0,0,.4.2h.048c.184-.009.367-.014.55-.014a10.47,10.47,0,0,1,1.84.16,9.375,9.375,0,0,1,7.814,8.976c.013.276.008.553,0,.83l0,.312a.457.457,0,0,0,.123.329.418.418,0,0,0,.3.119l.051,0a.605.605,0,0,0,.531-.545c.008-.173.006-.346,0-.52l0-.241A9.563,9.563,0,0,0,839.5,486.686Z" fill="#999"/>
    <path id="Path_3428" data-name="Path 3428" d="M828.295,482.456c.179-.01.323-.014.467-.014a7.307,7.307,0,0,1,1.6.18,6.649,6.649,0,0,1,5.166,5.99c.024.289.023.58.021.862v.233a.412.412,0,0,0,.431.446.593.593,0,0,0,.578-.564,13.487,13.487,0,0,0-.048-1.476,7.24,7.24,0,0,0-1.556-3.832,7.471,7.471,0,0,0-5.908-2.835h-.005c-.064,0-.134,0-.2,0l-.2,0c-.081,0-.161,0-.241.009a.559.559,0,0,0-.517.427.422.422,0,0,0,.416.58Z" fill="#999"/>
    <path id="Path_3429" data-name="Path 3429" d="M828.866,485.573a3.9,3.9,0,0,1,3.423,2.8,4.6,4.6,0,0,1,.164,1.479.4.4,0,0,0,.4.433h0a.606.606,0,0,0,.611-.54c.006-.088,0-.176,0-.264v-.133a4.751,4.751,0,0,0-4.9-4.808c-.1,0-.2,0-.3.007a.549.549,0,0,0-.5.364.462.462,0,0,0,.011.448.472.472,0,0,0,.409.2l.176,0C828.532,485.553,828.7,485.559,828.866,485.573Z" fill="#999"/>
  </g>
</svg>
