<svg xmlns="http://www.w3.org/2000/svg" width="20" height="14.994" viewBox="0 0 20 14.994">
  <g id="Group_3405" data-name="Group 3405" transform="translate(-819.604 -401.108)">
    <path id="Path_3424" data-name="Path 3424" d="M837.114,401.108H822.1a2.479,2.479,0,0,0-2.492,2.49q0,4.979,0,9.956a2.485,2.485,0,0,0,2.027,2.51.412.412,0,0,1,.083.038h15.781c.109-.033.219-.063.326-.1a2.487,2.487,0,0,0,1.743-1.908.732.732,0,0,1,.04-.1V403.217c-.037-.122-.073-.244-.112-.365A2.478,2.478,0,0,0,837.114,401.108Zm-15.187,1.274H837.28l.021.047-7.7,6.594q-3.85-3.3-7.688-6.587Zm-1.03,11.463c-.018-.17-.041-.291-.041-.412q0-3.806,0-7.61c0-.7,0-1.392,0-2.088a4.847,4.847,0,0,1,.056-.5l5.3,4.537Zm16.121,1.005q-7.409,0-14.818,0a4.057,4.057,0,0,1-.455-.055l5.423-6.2,1.525,1.306.4.343a.659.659,0,0,0,1.018.005l1.763-1.511c.053-.046.109-.089.17-.139l5.419,6.191A3.768,3.768,0,0,1,837.018,414.85Zm1.335-1.4c0,.114-.019.229-.029.343l-.053.01L833,407.777l5.3-4.539c.022.214.053.382.053.551q.006,3.492,0,6.984C838.354,411.664,838.356,412.555,838.353,413.446Z" fill="#999"/>
  </g>
</svg>
