<svg xmlns="http://www.w3.org/2000/svg" width="356.666" height="220" viewBox="0 0 356.666 220">
  <g id="Group_3587" data-name="Group 3587" transform="translate(-556.959 -4209.628)">
    <rect id="Rectangle_3548" data-name="Rectangle 3548" width="220" height="356.666" rx="15" transform="translate(556.959 4429.628) rotate(-90)" fill="#f1f1f1"/>
    <g id="Group_3511" data-name="Group 3511">
      <g id="Group_3510" data-name="Group 3510">
        <path id="Path_3520" data-name="Path 3520" d="M738.562,4284.759q9.888,0,19.775,0h0Q748.449,4284.758,738.562,4284.759Z" fill="#cbcbcb"/>
        <path id="Path_3521" data-name="Path 3521" d="M738.654,4292.841h0Z" fill="#cbcbcb"/>
        <path id="Path_3522" data-name="Path 3522" d="M778.124,4297.934q-9.87.006-19.741,0h0Q768.253,4297.937,778.124,4297.934Z" fill="#cbcbcb"/>
        <path id="Path_3523" data-name="Path 3523" d="M778.113,4314.079q-9.853,0-19.708,0h0Q768.26,4314.078,778.113,4314.079Z" fill="#cbcbcb"/>
        <path id="Path_3524" data-name="Path 3524" d="M784.259,4258.063l-.989-.128H687.315c-.462.064-.926.114-1.384.193a9.911,9.911,0,0,0-8.185,9.718V4331.1a9.928,9.928,0,0,0,8.721,9.692,13.215,13.215,0,0,0,1.376.078q47.47.006,94.941,0a9.938,9.938,0,0,0,9.88-7.924c.059-.282.116-.563.174-.845V4266.76c-.112-.513-.2-1.031-.341-1.536A9.92,9.92,0,0,0,784.259,4258.063Zm5.623,72.784A6.92,6.92,0,0,1,784,4337.8a5.624,5.624,0,0,1-.971.081q-47.724.006-95.447,0a6.948,6.948,0,0,1-6.818-6.254c-.027-.3-.042-.6-.042-.907q0-31.323,0-62.646a6.951,6.951,0,0,1,7.139-7.121H735.3q23.752,0,47.5,0a6.81,6.81,0,0,1,6.055,3.331,6.741,6.741,0,0,1,1.028,3.71Q789.885,4299.423,789.882,4330.847Z" fill="#cbcbcb"/>
        <path id="Path_3525" data-name="Path 3525" d="M723.244,4305.323a13.015,13.015,0,0,0-9.583-4.527c-3.22-.1-6.445-.027-9.668-.026-.269,0-.539.023-.806.05a13.378,13.378,0,0,0-8.68,4.272,12.993,12.993,0,0,0-3.605,8.248c-.107,1.689-.058,3.388-.07,5.082a1.557,1.557,0,0,0,1.782,1.769h32.408a1.5,1.5,0,0,0,1.678-1.525c.009-1.638.032-3.279-.03-4.915A13.027,13.027,0,0,0,723.244,4305.323Zm.458,11.841H693.9c-.022-.03-.046-.048-.046-.065a23.744,23.744,0,0,1,.262-5.129,10.666,10.666,0,0,1,8.424-8.026,13.944,13.944,0,0,1,2.208-.193c2.9-.017,5.8-.053,8.69.015a10.58,10.58,0,0,1,10.2,9.562c.1,1.159.048,2.332.066,3.5C723.7,4316.926,723.7,4317.026,723.7,4317.164Z" fill="#cbcbcb"/>
        <path id="Path_3526" data-name="Path 3526" d="M692.614,4320.191h0Z" fill="#cbcbcb"/>
        <path id="Path_3527" data-name="Path 3527" d="M708.747,4298.7a10.028,10.028,0,1,0-10.005-10.023A10,10,0,0,0,708.747,4298.7Zm-6.995-10.092a7.036,7.036,0,1,1,6.965,7.116A6.99,6.99,0,0,1,701.752,4288.61Z" fill="#cbcbcb"/>
        <path id="Path_3528" data-name="Path 3528" d="M738.67,4309h39.246c.112,0,.225,0,.337,0a1.5,1.5,0,0,0,1.372-1.927,1.538,1.538,0,0,0-1.607-1.071q-19.657,0-39.314,0a2.422,2.422,0,0,0-.468.039,1.481,1.481,0,0,0-1.145,1.859A1.509,1.509,0,0,0,738.67,4309Z" fill="#cbcbcb"/>
        <path id="Path_3529" data-name="Path 3529" d="M778.113,4314.079q-9.853,0-19.708,0H738.766c-.113,0-.225,0-.337,0a1.5,1.5,0,0,0,.213,2.987H778.09c.057,0,.113,0,.169,0a1.461,1.461,0,0,0,1.318-.945A1.485,1.485,0,0,0,778.113,4314.079Z" fill="#cbcbcb"/>
        <path id="Path_3530" data-name="Path 3530" d="M778.124,4297.934q-9.87.006-19.741,0H748.85q-5.119,0-10.241,0a1.48,1.48,0,0,0-1.177.475,1.417,1.417,0,0,0-.26,1.625,1.44,1.44,0,0,0,1.424.88h22.671q8.422,0,16.844,0a1.479,1.479,0,0,0,1.339-.693,1.4,1.4,0,0,0,.042-1.531A1.459,1.459,0,0,0,778.124,4297.934Z" fill="#cbcbcb"/>
        <path id="Path_3531" data-name="Path 3531" d="M738.562,4284.759q9.888,0,19.775,0h19.808a1.447,1.447,0,0,0,1.428-.921,1.486,1.486,0,0,0-1.483-2.055H738.643c-.068,0-.135,0-.2,0a1.435,1.435,0,0,0-1.03.5,1.489,1.489,0,0,0,1.151,2.474Z" fill="#cbcbcb"/>
        <path id="Path_3532" data-name="Path 3532" d="M777.965,4289.853H738.753c-.112,0-.224,0-.336.006a1.5,1.5,0,1,0,.237,2.981h39.313c.123,0,.248,0,.37-.008a1.483,1.483,0,0,0,1.317-1.769A1.513,1.513,0,0,0,777.965,4289.853Z" fill="#cbcbcb"/>
      </g>
    </g>
  </g>
</svg>
