<svg xmlns="http://www.w3.org/2000/svg" width="40" height="38.18" viewBox="0 0 40 38.18">
  <g id="Group_3249" data-name="Group 3249" transform="translate(2555.117 -4022.468)">
    <g id="Group_3248" data-name="Group 3248">
      <path id="Path_3252" data-name="Path 3252" d="M-2553.283,4040.94a37.832,37.832,0,0,0,5.89,8.554,80.7,80.7,0,0,0,11.469,10.561c.265.2.538.4.805.593.134-.1.24-.172.343-.25a84.87,84.87,0,0,0,9.3-8.088,50.12,50.12,0,0,0,6.855-8.385,21.873,21.873,0,0,0,3.305-7.978,10.993,10.993,0,0,0-.753-6.644,10.976,10.976,0,0,0-10.18-6.785,10.643,10.643,0,0,0-7.456,2.687c-.5.425-.934.927-1.412,1.407-.107-.114-.181-.187-.248-.265a10.78,10.78,0,0,0-3.333-2.6,10.89,10.89,0,0,0-9.608-.314,10.963,10.963,0,0,0-6.5,7.785c-.142.577-.209,1.173-.31,1.76v1.8a.7.7,0,0,1,.065.176A17.426,17.426,0,0,0-2553.283,4040.94Z" fill="#fff"/>
      <g id="Group_3247" data-name="Group 3247">
        <path id="Path_3253" data-name="Path 3253" d="M-2553.283,4040.94a37.832,37.832,0,0,0,5.89,8.554,80.7,80.7,0,0,0,11.469,10.561c.265.2.538.4.805.593.134-.1.24-.172.343-.25a84.87,84.87,0,0,0,9.3-8.088,50.12,50.12,0,0,0,6.855-8.385,21.873,21.873,0,0,0,3.305-7.978,10.993,10.993,0,0,0-.753-6.644,10.976,10.976,0,0,0-10.18-6.785,10.643,10.643,0,0,0-7.456,2.687c-.5.425-.934.927-1.412,1.407-.107-.114-.181-.187-.248-.265a10.78,10.78,0,0,0-3.333-2.6,10.89,10.89,0,0,0-9.608-.314,10.963,10.963,0,0,0-6.5,7.785c-.142.577-.209,1.173-.31,1.76v1.8a.7.7,0,0,1,.065.176A17.426,17.426,0,0,0-2553.283,4040.94Zm.819-7.577a8.7,8.7,0,0,1,5.451-7.628,8.641,8.641,0,0,1,10.671,3.744c.409.692.787,1.4,1.223,2.18.392-.706.739-1.343,1.1-1.974a8.44,8.44,0,0,1,5.282-4.217,8.27,8.27,0,0,1,8.547,2.33,8.682,8.682,0,0,1,2.07,8.688,22.1,22.1,0,0,1-3.612,7.342,60.531,60.531,0,0,1-10.226,10.91c-1.027.88-2.075,1.736-3.14,2.625-.608-.487-1.2-.948-1.778-1.429a75.162,75.162,0,0,1-7.484-7.02,38.231,38.231,0,0,1-6.491-9.031A13.775,13.775,0,0,1-2552.464,4033.363Z" fill="#939393"/>
      </g>
    </g>
  </g>
</svg>
