<svg xmlns="http://www.w3.org/2000/svg" width="20" height="20" viewBox="0 0 20 20">
  <g id="Group_3027" data-name="Group 3027" transform="translate(-632.481 -713.443)">
    <path id="Path_3010" data-name="Path 3010" d="M642.536,719.472a1.121,1.121,0,0,0-1.647-.082,1.143,1.143,0,0,0,.066,1.653c.5.478.974.99,1.467,1.479.311.307.637.6.967.907-.1.1-.15.16-.2.214-.745.758-1.493,1.512-2.234,2.274a1.11,1.11,0,1,0,1.61,1.528q1.543-1.563,3.084-3.132a1.114,1.114,0,0,0,0-1.678Q644.094,721.051,642.536,719.472Z" fill="#fff"/>
    <path id="Path_3011" data-name="Path 3011" d="M642.481,714.777a8.667,8.667,0,1,1-8.667,8.666,8.676,8.676,0,0,1,8.667-8.666m0-1.334a10,10,0,1,0,10,10,10,10,0,0,0-10-10Z" fill="#fff"/>
  </g>
</svg>
