<svg xmlns="http://www.w3.org/2000/svg" width="20" height="16.241" viewBox="0 0 20 16.241">
  <g id="Group_3045" data-name="Group 3045" transform="translate(-840.024 -2534.25)">
    <path id="Path_3040" data-name="Path 3040" d="M848.169,2548.437a9.619,9.619,0,0,0,1.865.182,10.07,10.07,0,0,0,3.983-.846,10.071,10.071,0,0,1-3.984.846A9.616,9.616,0,0,1,848.169,2548.437Z" fill="#cbcbcb"/>
    <path id="Path_3041" data-name="Path 3041" d="M843.481,2546.282c.334.244.681.473,1.032.716l-1.662,1.659c-.253.253-.509.5-.758.76a.617.617,0,0,0-.01.891.624.624,0,0,0,.892-.011c.057-.054.111-.11.166-.165l11.039-11.04c1.233-1.233,2.469-2.463,3.7-3.7a1.006,1.006,0,0,0,.25-.445.576.576,0,0,0-.332-.626.617.617,0,0,0-.747.144q-1.265,1.26-2.525,2.526a1.083,1.083,0,0,0-.118.181,1.512,1.512,0,0,0-.224-.119,10.02,10.02,0,0,0-3.958-.923,10.219,10.219,0,0,0-5.24,1.354,16.812,16.812,0,0,0-4.346,3.611,2.349,2.349,0,0,0-.611,1.044v.469a3.762,3.762,0,0,0,.39.771A17.255,17.255,0,0,0,843.481,2546.282Zm4.378-2.692a2.475,2.475,0,0,1,3.38-3.38Zm-6.488-1.434a15.083,15.083,0,0,1,4.664-3.813,8.819,8.819,0,0,1,4.173-.966,8.7,8.7,0,0,1,3.09.656.911.911,0,0,1,.087.045l-1.212,1.213a3.76,3.76,0,0,0-5.233,5.232l-1.533,1.534a12.922,12.922,0,0,1-1.881-1.323,18.248,18.248,0,0,1-2.129-2.114C841.236,2542.433,841.225,2542.324,841.371,2542.156Z" fill="#cbcbcb"/>
    <path id="Path_3042" data-name="Path 3042" d="M858.254,2539.905c-.413-.4-.856-.779-1.305-1.143a.617.617,0,0,0-1.019.405.662.662,0,0,0,.3.617,17.778,17.778,0,0,1,2.392,2.319c.183.212.191.315.022.51a17.392,17.392,0,0,1-2.785,2.639,9.236,9.236,0,0,1-7.709,1.911.613.613,0,0,0-.734.5.627.627,0,0,0,.489.713c.087.02.175.039.263.056a9.616,9.616,0,0,0,1.864.182,10.071,10.071,0,0,0,3.984-.846q.528-.228,1.041-.513a16.735,16.735,0,0,0,4.6-3.911,1.478,1.478,0,0,0-.034-2C859.181,2540.855,858.728,2540.368,858.254,2539.905Z" fill="#cbcbcb"/>
    <path id="Path_3043" data-name="Path 3043" d="M850.077,2546.118a3.766,3.766,0,0,0,3.687-3.635.631.631,0,1,0-1.249-.03,2.508,2.508,0,0,1-2.459,2.416.626.626,0,1,0,.021,1.249Z" fill="#cbcbcb"/>
  </g>
</svg>
