<svg xmlns="http://www.w3.org/2000/svg" width="19.979" height="20" viewBox="0 0 19.979 20">
  <g id="Group_3263" data-name="Group 3263" transform="translate(2336.762 -3768.464)">
    <path id="Path_3277" data-name="Path 3277" d="M-2325.984,3775.491a.531.531,0,0,1,.6-.536c.34,0,.681,0,1.021,0,.052,0,.1-.005.156-.007v-1.8a.384.384,0,0,0-.063-.013c-.606,0-1.213-.027-1.817,0a2.032,2.032,0,0,0-2.112,1.958,15,15,0,0,0-.033,1.559c0,.064,0,.127,0,.207h-1.129v1.885h1.129v5.745h2.247v-5.753h1.615c.064-.627.127-1.243.192-1.876h-1.807C-2325.988,3776.389-2326,3775.939-2325.984,3775.491Z" fill="#bc282d"/>
    <path id="Path_3278" data-name="Path 3278" d="M-2326.759,3768.464l.01,1a8.9,8.9,0,0,1,6.34,2.649,8.97,8.97,0,0,1,2.626,6.375,9.01,9.01,0,0,1-9.014,8.976,9,9,0,0,1-8.965-9.01,9.009,9.009,0,0,1,9-8.99v-1m0,0a10,10,0,0,0-10,9.989,10,10,0,0,0,9.964,10.011h.012a10,10,0,0,0,10-9.975,10,10,0,0,0-9.965-10.025Z" fill="#bc282d"/>
  </g>
</svg>
