<svg xmlns="http://www.w3.org/2000/svg" width="20" height="16.815" viewBox="0 0 20 16.815">
  <g id="Group_3259" data-name="Group 3259" transform="translate(2580.677 -3738.94)">
    <path id="Path_3261" data-name="Path 3261" d="M-2565.7,3754.888a.235.235,0,0,0,.159-.246c-.007-1.02.011-2.042-.011-3.062a3.672,3.672,0,0,0-3.278-3.506,25.316,25.316,0,0,0-3.405,0,3.645,3.645,0,0,0-3.263,3.355c-.053,1.091-.027,2.186-.025,3.279a.256.256,0,0,0,.143.191,17.5,17.5,0,0,0,3.212.721c.423.052.848.09,1.271.135h1.392c.38-.044.76-.081,1.139-.133A9.126,9.126,0,0,0-2565.7,3754.888Z" fill="#bc282d"/>
    <path id="Path_3262" data-name="Path 3262" d="M-2564.351,3745.01c-.79-.015-1.579,0-2.369,0a.451.451,0,0,0-.1.012,10.121,10.121,0,0,1-.392,1.339,9.7,9.7,0,0,1-.717,1.165,4.478,4.478,0,0,1,3.112,4.668v.511a1.9,1.9,0,0,0,.217,0c.688-.092,1.386-.139,2.06-.293.636-.145,1.246-.4,1.868-.61v-3.391a1.417,1.417,0,0,1-.043-.166A3.729,3.729,0,0,0-2564.351,3745.01Z" fill="#bc282d"/>
    <path id="Path_3263" data-name="Path 3263" d="M-2574.405,3745.008c-.862,0-1.724-.012-2.585,0a3.735,3.735,0,0,0-3.681,3.717c-.009.97,0,1.94-.006,2.911,0,.15.041.218.188.252.9.209,1.8.444,2.7.629.5.1,1.014.125,1.56.188-.183-2.506.765-4.3,3.151-5.217a3.7,3.7,0,0,1-1.091-2.467C-2574.262,3745.017-2574.333,3745.008-2574.405,3745.008Z" fill="#bc282d"/>
    <path id="Path_3264" data-name="Path 3264" d="M-2570.515,3741.971a2.916,2.916,0,0,0-2.941,2.91,2.917,2.917,0,0,0,2.922,2.93,2.924,2.924,0,0,0,2.933-2.922A2.92,2.92,0,0,0-2570.515,3741.971Z" fill="#bc282d"/>
    <path id="Path_3265" data-name="Path 3265" d="M-2577.544,3744.1a2.82,2.82,0,0,0,3.174.376.483.483,0,0,0,.3-.379,3.451,3.451,0,0,1,1.156-1.941.422.422,0,0,0,.16-.372,2.92,2.92,0,0,0-2.918-2.847c-.066,0-.131,0-.2,0s-.144.017-.215.029a2.8,2.8,0,0,0-2.4,2.083A2.747,2.747,0,0,0-2577.544,3744.1Z" fill="#bc282d"/>
    <path id="Path_3266" data-name="Path 3266" d="M-2566.163,3738.979a2.938,2.938,0,0,0-2.429,2.642.3.3,0,0,0,.145.3,3.547,3.547,0,0,1,1.505,2.4.3.3,0,0,0,.221.276,2.929,2.929,0,0,0,3.973-2.736c-.013-.151-.013-.3-.04-.454A2.917,2.917,0,0,0-2566.163,3738.979Z" fill="#bc282d"/>
  </g>
</svg>
