<svg xmlns="http://www.w3.org/2000/svg" width="18.102" height="18.001" viewBox="0 0 18.102 18.001">
  <g id="Group_3231" data-name="Group 3231" transform="translate(2460.073 -4105.307)">
    <path id="Path_3236" data-name="Path 3236" d="M-2455.157,4112.739a23.7,23.7,0,0,0,3.085,5.263c.33.448.68.882,1.044,1.351a30.04,30.04,0,0,0,3.56-5.342,10.48,10.48,0,0,0,1.143-3.381,4.729,4.729,0,0,0-4.744-5.323,4.72,4.72,0,0,0-4.687,4.847A7.424,7.424,0,0,0-2455.157,4112.739Zm4.143-5.317a2.331,2.331,0,0,1,2.323,2.334,2.322,2.322,0,0,1-2.318,2.334,2.322,2.322,0,0,1-2.347-2.329A2.332,2.332,0,0,1-2451.014,4107.422Z" fill="#bf282d"/>
    <path id="Path_3237" data-name="Path 3237" d="M-2442.42,4119.561a4.536,4.536,0,0,0-1.078-.71,14.456,14.456,0,0,0-4.7-1.136.33.33,0,0,0-.24.127c-.284.367-.555.746-.828,1.121a1.739,1.739,0,0,0-.093.155,15.04,15.04,0,0,1,5.684,1.311c-.21.108-.352.192-.5.257a14.372,14.372,0,0,1-4.38.991,26.3,26.3,0,0,1-4.274.052,17.406,17.406,0,0,1-4.178-.723c-.446-.141-.872-.342-1.307-.515l.014-.1a15.173,15.173,0,0,1,5.631-1.276c-.318-.436-.627-.85-.923-1.274a.273.273,0,0,0-.291-.134,17.622,17.622,0,0,0-3.851.805,5.11,5.11,0,0,0-1.857,1,1.1,1.1,0,0,0,0,1.812,4.728,4.728,0,0,0,1.128.72,15.165,15.165,0,0,0,4.946,1.139,26.948,26.948,0,0,0,5.005,0,17.378,17.378,0,0,0,4.249-.849,4.919,4.919,0,0,0,1.865-1.035A1.084,1.084,0,0,0-2442.42,4119.561Z" fill="#bf282d"/>
    <path id="Path_3238" data-name="Path 3238" d="M-2451.052,4110.9a1.135,1.135,0,0,0,1.172-1.129,1.134,1.134,0,0,0-1.14-1.16,1.133,1.133,0,0,0-1.148,1.128A1.135,1.135,0,0,0-2451.052,4110.9Z" fill="#bf282d"/>
  </g>
</svg>
