<svg xmlns="http://www.w3.org/2000/svg" width="18.077" height="18.077" viewBox="0 0 18.077 18.077">
  <g id="Group_3233" data-name="Group 3233" transform="translate(2460.117 -4082.23)">
    <g id="Rectangle_3321" data-name="Rectangle 3321" transform="translate(-2460.117 4082.23)" fill="none" stroke="#bf282d" stroke-miterlimit="10" stroke-width="1">
      <rect width="18.077" height="18.077" rx="9.038" stroke="none"/>
      <rect x="0.5" y="0.5" width="17.077" height="17.077" rx="8.538" fill="none"/>
    </g>
    <g id="Group_3232" data-name="Group 3232">
      <path id="Path_3239" data-name="Path 3239" d="M-2447.348,4085.776a.943.943,0,0,0-1.044.314,3.968,3.968,0,0,0-.26.382l-2.315,3.838a.75.75,0,0,1-.048.07l-.053-.078q-1.194-1.874-2.391-3.747c-.117-.182-.249-.355-.384-.525a.8.8,0,0,0-.552-.293.8.8,0,0,0-.9.556.944.944,0,0,0,.067.716c.068.127.141.253.218.375q1.11,1.745,2.221,3.487c.017.028.034.057.058.1h-.116c-.274,0-.548,0-.822,0a1.674,1.674,0,0,0-.638.1.566.566,0,0,0-.367.412.6.6,0,0,0,.418.752,2.245,2.245,0,0,0,.584.085c.513.011,1.026,0,1.539,0h.116v1.055h-.106c-.519,0-1.039-.009-1.558,0a2.228,2.228,0,0,0-.6.1.561.561,0,0,0-.407.591.551.551,0,0,0,.418.571,2.342,2.342,0,0,0,.593.091c.519.012,1.039,0,1.558,0h.109v.123c0,.251,0,.5.014.755a1.783,1.783,0,0,0,.214.785.922.922,0,0,0,1.546-.025,1.444,1.444,0,0,0,.16-.47c.037-.349.04-.7.056-1.053,0-.037,0-.073,0-.115h1.685a1.483,1.483,0,0,0,.67-.13.542.542,0,0,0,.312-.4.6.6,0,0,0-.455-.747,2.222,2.222,0,0,0-.558-.075c-.516-.01-1.032,0-1.548,0h-.1v-1.055h.124c.554,0,1.108,0,1.662,0a1.178,1.178,0,0,0,.607-.15.614.614,0,0,0-.022-1.055,1.306,1.306,0,0,0-.5-.131c-.345-.023-.692-.014-1.038-.017h-.115c.025-.044.04-.074.057-.1q1.035-1.707,2.069-3.414a3.8,3.8,0,0,0,.274-.526A.817.817,0,0,0-2447.348,4085.776Z" fill="#bf282d"/>
    </g>
  </g>
</svg>
