<svg xmlns="http://www.w3.org/2000/svg" width="20" height="19.613" viewBox="0 0 20 19.613">
  <g id="Group_3262" data-name="Group 3262" transform="translate(2580.677 -3705.333)">
    <path id="Path_3273" data-name="Path 3273" d="M-2578.214,3722.2c.413-.01.826,0,1.239,0h.222v-4.964a1.21,1.21,0,0,1,1.322-1.324h9.507a1.206,1.206,0,0,1,1.317,1.309q0,2.362,0,4.724v.226a.3.3,0,0,0,.071.024c.5,0,.994.007,1.491,0a.316.316,0,0,0,.193-.1,2.126,2.126,0,0,0,.523-2.117c-.561-2-1.146-3.99-1.732-5.981a1.954,1.954,0,0,0-1.833-1.418c-.671,0-1.342.007-2.014,0a.255.255,0,0,0-.257.151c-.233.409-.475.813-.715,1.219l-.5.847-1.316-2.226c-.23.387-.442.747-.655,1.107s-.433.732-.661,1.118c-.055-.092-.1-.162-.141-.233-.361-.611-.724-1.221-1.079-1.835a.257.257,0,0,0-.26-.148c-.594.007-1.189.03-1.781,0a2.017,2.017,0,0,0-2.056,1.514c-.561,1.951-1.136,3.9-1.691,5.852a2.185,2.185,0,0,0,.474,2.115A.39.39,0,0,0-2578.214,3722.2Z" fill="#bc282d"/>
    <path id="Path_3274" data-name="Path 3274" d="M-2565.951,3716.953h-9.448c-.3,0-.31.013-.31.3q0,2.354,0,4.705v.225h10.059v-4.939C-2565.65,3716.97-2565.668,3716.953-2565.951,3716.953Z" fill="#bc282d"/>
    <path id="Path_3275" data-name="Path 3275" d="M-2570.715,3712.293a3.494,3.494,0,0,0,3.515-3.441,3.49,3.49,0,0,0-3.455-3.519,3.491,3.491,0,0,0-3.5,3.449A3.493,3.493,0,0,0-2570.715,3712.293Z" fill="#bc282d"/>
    <path id="Path_3276" data-name="Path 3276" d="M-2580.677,3724.946h20v-1.689h-20Z" fill="#bc282d"/>
  </g>
</svg>
