<svg xmlns="http://www.w3.org/2000/svg" width="18" height="18" viewBox="0 0 18 18">
  <g id="Group_3230" data-name="Group 3230" transform="translate(2460.079 -4128.307)">
    <path id="Path_3234" data-name="Path 3234" d="M-2451.093,4146.307a8.995,8.995,0,0,0,9.014-8.991,8.991,8.991,0,0,0-8.994-9.009,8.993,8.993,0,0,0-9.006,9A9,9,0,0,0-2451.093,4146.307Zm.022-16.55a7.566,7.566,0,0,1,7.542,7.565,7.566,7.566,0,0,1-7.558,7.534,7.564,7.564,0,0,1-7.541-7.581A7.566,7.566,0,0,1-2451.071,4129.757Z" fill="#bf282d"/>
    <path id="Path_3235" data-name="Path 3235" d="M-2451,4138.035c.491,0,.982,0,1.474,0q1.212,0,2.426,0a.73.73,0,0,0,.756-.549.726.726,0,0,0-.745-.907c-1.014,0-2.027,0-3.04,0h-.217v-.208q0-2.058,0-4.115a.781.781,0,0,0-.2-.564.729.729,0,0,0-.789-.185.736.736,0,0,0-.472.737q0,2.494,0,4.99A.739.739,0,0,0-2451,4138.035Z" fill="#bf282d"/>
  </g>
</svg>
