<svg xmlns="http://www.w3.org/2000/svg" width="18.458" height="20" viewBox="0 0 18.458 20">
  <g id="Group_3261" data-name="Group 3261" transform="translate(2336.002 -3737.347)">
    <path id="Path_3268" data-name="Path 3268" d="M-2318.411,3742.213a.482.482,0,0,0,.33-.447.479.479,0,0,0-.323-.425c-2.46-1.228-4.918-2.464-7.383-3.683a6.905,6.905,0,0,0-.981-.311,7.36,7.36,0,0,0-1.039.338c-2.443,1.207-4.877,2.432-7.316,3.648-.19.095-.339.213-.34.439s.146.347.336.442q3.693,1.842,7.384,3.692a2.041,2.041,0,0,0,1.926.009Q-2322.113,3744.062-2318.411,3742.213Z" fill="#bc282d"/>
    <path id="Path_3269" data-name="Path 3269" d="M-2328.277,3747.317q-3.5-1.612-7-3.232c-.438-.2-.724-.013-.724.47q0,3.915,0,7.828a1.825,1.825,0,0,0,1.126,1.779q3.345,1.554,6.7,3.094c.474.218.743.042.743-.485q0-1.023,0-2.047v-2.047q0-1,0-2.008c0-.67,0-1.339.006-2.009A1.342,1.342,0,0,0-2328.277,3747.317Z" fill="#bc282d"/>
    <path id="Path_3270" data-name="Path 3270" d="M-2327.436,3754.724v-2.047q0-1,0-2.008,0,1,0,2.008Z" fill="#bc282d"/>
    <path id="Path_3271" data-name="Path 3271" d="M-2317.546,3744.6c0-.544-.264-.717-.754-.491q-3.489,1.608-6.978,3.217a1.317,1.317,0,0,0-.834,1.3q0,1.011,0,2.021t0,2.021v2.086q0,1.043,0,2.085c0,.241.07.446.316.491a.836.836,0,0,0,.461-.086q3.306-1.515,6.606-3.043a1.88,1.88,0,0,0,1.185-1.848C-2317.55,3749.764-2317.546,3747.181-2317.546,3744.6Z" fill="#bc282d"/>
    <path id="Path_3272" data-name="Path 3272" d="M-2326.109,3750.641q0,1.011,0,2.021v0Q-2326.11,3751.651-2326.109,3750.641Z" fill="#bc282d"/>
  </g>
</svg>
