<svg xmlns="http://www.w3.org/2000/svg" width="20.012" height="20" viewBox="0 0 20.012 20">
  <g id="Group_3260" data-name="Group 3260" transform="translate(2580.683 -3768.464)">
    <path id="Path_3267" data-name="Path 3267" d="M-2570.694,3768.464a10.012,10.012,0,0,0-9.989,9.991,10,10,0,0,0,10.05,10.009,9.986,9.986,0,0,0,9.962-9.949A10,10,0,0,0-2570.694,3768.464Zm-4.233,5.261a8.648,8.648,0,0,1,.482-2.617.507.507,0,0,1,.225-.255,8.084,8.084,0,0,1,2.982-.77.435.435,0,0,1,.285.1,9.773,9.773,0,0,1,2.047,2.653,20.065,20.065,0,0,1,2.072,5.663.214.214,0,0,1-.134.281,21.4,21.4,0,0,1-5.947,2.188c-.206.044-.413.082-.62.121-.067.012-.134.019-.253.036-.19-.669-.394-1.323-.559-1.987A18.441,18.441,0,0,1-2574.927,3773.725Zm-3.764,7.265a8.314,8.314,0,0,1,2.172-8.561,1.261,1.261,0,0,1,.1-.084,20.806,20.806,0,0,0,1.017,8.979c-.674,0-1.313.017-1.95-.007-.379-.015-.755-.1-1.132-.148A.221.221,0,0,1-2578.691,3780.99Zm.871,1.905c.277.016.511.043.745.041.658-.006,1.317-.011,1.975-.043a.343.343,0,0,1,.408.24,15.61,15.61,0,0,0,1.893,3.341,1.73,1.73,0,0,1,.092.15A8.5,8.5,0,0,1-2577.82,3782.9Zm11.024,2.635a.939.939,0,0,1-.622.69,9.556,9.556,0,0,1-2.584.627.557.557,0,0,1-.474-.16,11.367,11.367,0,0,1-2.29-3.2c-.136-.266-.261-.537-.4-.835a23.787,23.787,0,0,0,6.642-2.277c.027.274.055.52.074.766A12.771,12.771,0,0,1-2566.8,3785.53Zm4.4-8.357c.68,2-.774,6.209-2.511,7.379.033-.8.107-1.638.09-2.469s-.128-1.639-.189-2.459a.27.27,0,0,1,.092-.21,11.635,11.635,0,0,0,2.457-2.194A.335.335,0,0,1-2562.4,3777.173Zm-.69-1.94a5.787,5.787,0,0,1-1.441,1.831c-.262.236-.539.453-.831.7a23.369,23.369,0,0,0-1.266-3.9,18.445,18.445,0,0,0-1.992-3.548c.28.089.565.164.84.268a8.408,8.408,0,0,1,4.683,4.256A.418.418,0,0,1-2563.085,3775.233Z" fill="#bc282d"/>
  </g>
</svg>
