<svg xmlns="http://www.w3.org/2000/svg" width="356.492" height="219.893" viewBox="0 0 356.492 219.893">
  <g id="Group_3588" data-name="Group 3588" transform="translate(-933.661 -4207.936)">
    <rect id="Rectangle_3549" data-name="Rectangle 3549" width="219.893" height="356.492" rx="15" transform="translate(933.661 4427.828) rotate(-90)" fill="#f1f1f1"/>
    <g id="Group_3512" data-name="Group 3512">
      <path id="Path_3533" data-name="Path 3533" d="M1069.79,4284.759c6.592,0,58.57,0,65.162,0h0C1128.36,4284.758,1076.382,4284.757,1069.79,4284.759Z" fill="#cbcbcb"/>
      <path id="Path_3534" data-name="Path 3534" d="M1069.882,4292.841h0Z" fill="#cbcbcb"/>
      <path id="Path_3535" data-name="Path 3535" d="M1154.739,4297.934q-9.872.006-19.741,0h0Q1144.868,4297.937,1154.739,4297.934Z" fill="#cbcbcb"/>
      <path id="Path_3536" data-name="Path 3536" d="M1154.728,4314.079q-9.853,0-19.708,0h0Q1144.873,4314.078,1154.728,4314.079Z" fill="#cbcbcb"/>
      <path id="Path_3537" data-name="Path 3537" d="M1160.874,4258.063l-.989-.128H1063.93c-.462.064-.926.114-1.385.193a9.911,9.911,0,0,0-8.184,9.718V4331.1a9.928,9.928,0,0,0,8.72,9.692,13.248,13.248,0,0,0,1.377.078q47.47.006,94.941,0a9.938,9.938,0,0,0,9.88-7.924l.174-.845V4266.76c-.112-.513-.2-1.031-.341-1.536A9.92,9.92,0,0,0,1160.874,4258.063Zm5.623,72.784a6.92,6.92,0,0,1-5.879,6.952,5.626,5.626,0,0,1-.971.081q-47.724.006-95.447,0a6.949,6.949,0,0,1-6.818-6.254c-.027-.3-.042-.6-.042-.907q0-31.323,0-62.646a6.951,6.951,0,0,1,7.139-7.121h47.437q23.753,0,47.5,0a6.81,6.81,0,0,1,6.055,3.331,6.741,6.741,0,0,1,1.028,3.71Q1166.5,4299.423,1166.5,4330.847Z" fill="#cbcbcb"/>
      <path id="Path_3538" data-name="Path 3538" d="M1069.9,4309h84.633c.112,0,.225,0,.337,0a1.5,1.5,0,0,0,1.372-1.927,1.538,1.538,0,0,0-1.607-1.071c-13.105,0-71.6,0-84.7,0a2.422,2.422,0,0,0-.468.039,1.481,1.481,0,0,0-1.145,1.859A1.509,1.509,0,0,0,1069.9,4309Z" fill="#cbcbcb"/>
      <path id="Path_3539" data-name="Path 3539" d="M1154.728,4314.079q-9.853,0-19.708,0h-65.026c-.113,0-.225,0-.337,0a1.5,1.5,0,0,0,.213,2.987H1154.7c.056,0,.113,0,.169,0a1.461,1.461,0,0,0,1.318-.945A1.485,1.485,0,0,0,1154.728,4314.079Z" fill="#cbcbcb"/>
      <path id="Path_3540" data-name="Path 3540" d="M1154.739,4297.934q-9.872.006-19.741,0h-54.92q-5.121,0-10.241,0a1.48,1.48,0,0,0-1.177.475,1.417,1.417,0,0,0-.26,1.625,1.44,1.44,0,0,0,1.424.88h68.058q8.422,0,16.844,0a1.479,1.479,0,0,0,1.339-.693,1.4,1.4,0,0,0,.041-1.531A1.456,1.456,0,0,0,1154.739,4297.934Z" fill="#cbcbcb"/>
      <path id="Path_3541" data-name="Path 3541" d="M1069.79,4284.759c6.592,0,58.57,0,65.162,0h19.808a1.447,1.447,0,0,0,1.428-.921,1.486,1.486,0,0,0-1.483-2.055h-84.834c-.068,0-.135,0-.2,0a1.435,1.435,0,0,0-1.03.5,1.489,1.489,0,0,0,1.151,2.474Z" fill="#cbcbcb"/>
      <path id="Path_3542" data-name="Path 3542" d="M1154.58,4289.853h-84.6c-.112,0-.225,0-.336.006a1.5,1.5,0,1,0,.237,2.981h84.7c.123,0,.247,0,.37-.008a1.483,1.483,0,0,0,1.317-1.769A1.513,1.513,0,0,0,1154.58,4289.853Z" fill="#cbcbcb"/>
    </g>
  </g>
</svg>
