<svg xmlns="http://www.w3.org/2000/svg" width="18" height="18" viewBox="0 0 18 18">
  <g id="Group_3265" data-name="Group 3265" transform="translate(-626.401 -81.032)">
    <path id="Path_3279" data-name="Path 3279" d="M634.981,95.5a.263.263,0,0,0-.207-.084q-3.261,0-6.524,0a.6.6,0,0,1-.647-.643q0-1.412,0-2.823V91.82h8.384v-1.2H627.6V85.3a.607.607,0,0,1,.674-.674h13.037a.607.607,0,0,1,.675.674v5.319h1.2V90.5q0-2.614,0-5.23a1.92,1.92,0,0,0-.029-.347,1.794,1.794,0,0,0-1.795-1.493h-2.973c0-.2,0-.385,0-.568a1.8,1.8,0,0,0-1.836-1.828q-1.766,0-3.531,0a1.983,1.983,0,0,0-.521.07,1.786,1.786,0,0,0-1.3,1.718c0,.2,0,.4,0,.606h-.133q-1.411,0-2.823,0a2.1,2.1,0,0,0-.38.034,1.789,1.789,0,0,0-1.461,1.809q0,4.752,0,9.5a1.938,1.938,0,0,0,.021.314,1.788,1.788,0,0,0,1.819,1.528q3.814,0,7.627,0c.04,0,.08,0,.155-.006a.818.818,0,0,0-.092-.154C635.616,96.14,635.3,95.824,634.981,95.5ZM632.4,82.782a.575.575,0,0,1,.579-.547q1.816,0,3.633,0a.567.567,0,0,1,.571.516c.016.219,0,.441,0,.669H632.4C632.4,83.2,632.389,82.991,632.4,82.782Z" fill="#333"/>
    <path id="Path_3280" data-name="Path 3280" d="M643.262,93.692a.265.265,0,0,1-.068-.165c0-.521,0-1.042,0-1.563v-.141h-.138c-.517,0-1.034,0-1.552,0a.247.247,0,0,1-.195-.083c-.34-.344-.683-.685-1.025-1.027-.028-.028-.058-.055-.1-.1a1.249,1.249,0,0,1-.09.112c-.341.342-.682.686-1.027,1.024a.265.265,0,0,1-.164.068c-.521,0-1.042,0-1.563,0h-.142v.137c0,.517,0,1.035,0,1.552a.25.25,0,0,1-.082.2c-.342.337-.68.677-1.019,1.017-.032.031-.061.063-.111.114a1.187,1.187,0,0,1,.115.087c.343.341.686.682,1.024,1.028a.262.262,0,0,1,.068.164c.006.386,0,.772,0,1.158v.547h.149c.513,0,1.027,0,1.54,0a.245.245,0,0,1,.2.082c.34.345.683.685,1.025,1.027.028.029.058.056.106.1a1.306,1.306,0,0,1,.087-.114c.342-.343.682-.686,1.028-1.024a.257.257,0,0,1,.164-.068c.521,0,1.042,0,1.563,0h.142v-.149c0-.514,0-1.028,0-1.541a.25.25,0,0,1,.083-.2c.344-.339.685-.683,1.027-1.025.028-.028.055-.057.1-.106a1.029,1.029,0,0,1-.107-.079C643.949,94.383,643.6,94.04,643.262,93.692Zm-1.189,1.748a.253.253,0,0,0-.087.206c.005.317,0,.636,0,.966-.047,0-.087.007-.126.007-.278,0-.555,0-.832,0a.291.291,0,0,0-.235.1c-.194.2-.395.4-.607.612a5.2,5.2,0,0,1-.4-.415.732.732,0,0,0-.717-.3,5.737,5.737,0,0,1-.67.005c0-.051-.006-.091-.006-.131,0-.285,0-.57,0-.854a.3.3,0,0,0-.077-.183c-.174-.186-.358-.363-.538-.543-.026-.026-.051-.054-.085-.09.209-.208.412-.413.619-.612A.255.255,0,0,0,638.4,94c0-.318,0-.636,0-.967.048,0,.088-.008.127-.008.285,0,.57,0,.855,0a.248.248,0,0,0,.2-.083c.2-.207.405-.41.625-.63a4.8,4.8,0,0,1,.384.4.755.755,0,0,0,.755.315,5.44,5.44,0,0,1,.653,0v.223c0,.247,0,.495,0,.742a.265.265,0,0,0,.088.217c.181.173.356.353.533.531.026.026.051.054.086.091C642.484,95.036,642.281,95.24,642.073,95.44Z" fill="#333"/>
    <path id="Path_3281" data-name="Path 3281" d="M633.718,89.431c.72,0,1.439,0,2.159,0,.036,0,.073,0,.112-.006v-1.19a.53.53,0,0,0-.06-.007c-.749,0-1.5,0-2.248,0-.084,0-.088.041-.088.105,0,.326.005.652,0,.978C633.589,89.408,633.621,89.432,633.718,89.431Z" fill="#333"/>
  </g>
</svg>
