<svg xmlns="http://www.w3.org/2000/svg" width="18.352" height="20" viewBox="0 0 18.352 20">
  <path id="ic_calendar" d="M156.823,442.154c-.43-.006-.86,0-1.291,0h-.14v-.13c0-.331,0-.663,0-.994a1.718,1.718,0,0,0-1.444-1.708,5.3,5.3,0,0,0-.643-.065h-.244a2.4,2.4,0,0,0-.772.147,1.78,1.78,0,0,0-1.124,1.62c-.006.332,0,.663,0,.995v.129h-4.23v-.13c-.005-.388.019-.78-.021-1.164a1.727,1.727,0,0,0-1.671-1.565,5.921,5.921,0,0,0-1.138.038,1.746,1.746,0,0,0-1.4,1.612c-.013.373,0,.747-.006,1.12,0,.026,0,.052-.005.1h-.124c-.408,0-.816.014-1.223,0a1.453,1.453,0,0,0-1.477,1.491c.012,2.163,0,4.327,0,6.49,0,2.545.007,5.089,0,7.634a1.463,1.463,0,0,0,1.07,1.446,1.65,1.65,0,0,0,.384.043q7.713,0,15.426,0A1.4,1.4,0,0,0,158.2,458a.369.369,0,0,1,.018-.053V443.457c-.018-.086-.032-.172-.055-.256A1.428,1.428,0,0,0,156.823,442.154Zm-4.249-1.006c0-.292.117-.408.409-.408h.606c.271,0,.391.118.394.391,0,.365,0,.731,0,1.1,0,.674,0,1.348,0,2.022,0,.28-.113.4-.382.4-.225,0-.45,0-.674,0a.322.322,0,0,1-.352-.358c0-.53,0-1.059,0-1.589Zm-8.466.04c0-.042,0-.084,0-.126a.319.319,0,0,1,.334-.32c.247-.007.495-.007.742,0a.32.32,0,0,1,.328.361c0,.537,0,1.074,0,1.611,0,.514,0,1.028,0,1.543,0,.275-.114.391-.387.393-.224,0-.449,0-.674,0a.318.318,0,0,1-.345-.33c0-.038,0-.076,0-.114Zm12.69,16.644H141.29V446.438H156.8Z" transform="translate(-139.87 -439.255)" fill="#bc282d"/>
</svg>
