<svg xmlns="http://www.w3.org/2000/svg" width="160" height="159.997" viewBox="0 0 160 159.997">
  <g id="ic_done" transform="translate(2360.863 -3522.181)">
    <path id="Path_692" data-name="Path 692" d="M-2261.584,3679.761c41.288-9.954,67.7-51.723,59.1-93.372-.693-3.353-1.64-6.663-2.642-9.939a4.542,4.542,0,0,0-5.805-3.1,4.628,4.628,0,0,0-3.13,5.8c.176.7.388,1.4.6,2.1a71.191,71.191,0,0,1,1.348,37c-6.943,30.663-34.889,53.654-66.328,54.487-16.267.431-31.208-3.855-44.135-13.752-21.935-16.8-31.526-39.216-28.084-66.639,2.391-19.047,11.694-34.623,27.03-46.172,19.256-14.5,40.692-18.067,63.83-11.333a75.846,75.846,0,0,1,16.3,7.37,4.574,4.574,0,0,0,6.367-1.69,4.64,4.64,0,0,0-1.677-6.39c-1.316-.836-2.686-1.593-4.061-2.329a79.28,79.28,0,0,0-46.139-9.2,76.52,76.52,0,0,0-36.04,12.967c-18.813,12.809-30.436,30.4-34.567,52.841-.553,3-.838,6.054-1.246,9.083v9.376c.408,3.027.685,6.078,1.246,9.077,4.477,23.958,17.233,42.271,37.959,54.972a76.123,76.123,0,0,0,34.905,11.01,8.546,8.546,0,0,1,1.206.257h9.376c.454-.092.906-.2,1.363-.272C-2270.4,3681.2-2265.913,3680.8-2261.584,3679.761Z" fill="#31736a"/>
    <path id="Path_693" data-name="Path 693" d="M-2214.918,3542.827c-2.114-.4-3.68.535-5.026,2.136q-26.947,32.045-53.932,64.055c-2.444,2.9-4.893,5.8-7.364,8.725-.371-.324-.65-.554-.913-.8q-16.056-15.084-32.112-30.169a13.458,13.458,0,0,0-1.532-1.328,4.461,4.461,0,0,0-5.139-.181,4.038,4.038,0,0,0-2.112,4.632,7.85,7.85,0,0,0,2.125,3.477c11.642,11.035,23.423,21.925,35,33.025,3.957,3.794,6.581,3.845,10.251-.561,15.3-18.364,30.756-36.6,46.156-54.876q8.4-9.976,16.815-19.947c1.253-1.481,1.957-3.074,1.321-5.022A4.428,4.428,0,0,0-2214.918,3542.827Z" fill="#31736a"/>
  </g>
</svg>
