<svg xmlns="http://www.w3.org/2000/svg" width="19.979" height="20" viewBox="0 0 19.979 20">
  <g id="ic_fb_red" transform="translate(-139.872 -499.255)">
    <path id="Path_3156" data-name="Path 3156" d="M150.65,506.282a.532.532,0,0,1,.6-.537c.34,0,.681,0,1.021,0,.052,0,.1,0,.156-.006v-1.8a.578.578,0,0,0-.063-.014c-.606,0-1.213-.026-1.817,0a2.032,2.032,0,0,0-2.112,1.958,14.977,14.977,0,0,0-.033,1.559c0,.063,0,.127,0,.207H147.27v1.885H148.4v5.745h2.247v-5.753h1.615c.064-.628.127-1.243.192-1.877h-1.808C150.645,507.18,150.63,506.73,150.65,506.282Z" fill="#bc282d"/>
    <g id="Path_3157" data-name="Path 3157" fill="none" stroke-miterlimit="10">
      <path d="M149.886,499.255a10,10,0,1,0,9.965,10.024A10,10,0,0,0,149.886,499.255Z" stroke="none"/>
      <path d="M 149.8740081787109 499.2550048828125 L 149.8740081787109 500.2550048828125 C 144.9120788574219 500.2550048828125 140.8737945556641 504.28759765625 140.8719940185547 509.2445373535156 C 140.8693084716797 514.2056884765625 144.8907470703125 518.247802734375 149.8374786376953 518.2550048828125 L 149.8479766845703 518.2550048828125 C 154.8059692382812 518.2550048828125 158.8447113037109 514.227783203125 158.8509979248047 509.2777099609375 C 158.8540496826172 506.8734436035156 157.9215087890625 504.6095581054688 156.2251739501953 502.9031372070312 C 154.52978515625 501.1976318359375 152.2781677246094 500.2572021484375 149.8860015869141 500.2550048828125 L 149.8748474121094 500.2550048828125 L 149.8740081787109 499.2550048828125 M 149.8749389648438 499.2550048828125 C 149.8783111572266 499.2550048828125 149.8826293945312 499.2550048828125 149.8860015869141 499.2550048828125 C 155.3880004882812 499.260009765625 159.8580017089844 503.7569580078125 159.8509979248047 509.2789916992188 C 159.843994140625 514.7849731445312 155.3604125976562 519.2550048828125 149.8479766845703 519.2550048828125 C 149.8439331054688 519.2550048828125 149.8390502929688 519.2550048828125 149.8350067138672 519.2550048828125 C 144.3379974365234 519.2470092773438 139.8690032958984 514.7579956054688 139.8719940185547 509.2439880371094 C 139.8739929199219 503.7273559570312 144.3535919189453 499.2545166015625 149.8749389648438 499.2550048828125 Z" stroke="none" fill="#ae3634"/>
    </g>
  </g>
</svg>
