<svg xmlns="http://www.w3.org/2000/svg" width="40" height="38.18" viewBox="0 0 40 38.18">
  <g id="Group_3322" data-name="Group 3322" transform="translate(-495.453 -269.131)">
    <path id="Path_3345" data-name="Path 3345" d="M497.288,287.6a37.834,37.834,0,0,0,5.889,8.554,80.769,80.769,0,0,0,11.47,10.561c.265.2.538.4.8.593.134-.1.241-.172.344-.25a84.866,84.866,0,0,0,9.3-8.088,50.024,50.024,0,0,0,6.855-8.385,21.84,21.84,0,0,0,3.3-7.978,11.326,11.326,0,0,0-10.932-13.429,10.646,10.646,0,0,0-7.457,2.687c-.5.425-.934.927-1.411,1.407-.108-.114-.181-.187-.248-.265a11.271,11.271,0,0,0-12.941-2.911,10.964,10.964,0,0,0-6.5,7.785c-.143.577-.209,1.173-.311,1.76v1.8a.674.674,0,0,1,.066.176A17.431,17.431,0,0,0,497.288,287.6Z" fill="#d10023"/>
    <g id="Group_3321" data-name="Group 3321">
      <path id="Path_3346" data-name="Path 3346" d="M497.288,287.6a37.834,37.834,0,0,0,5.889,8.554,80.769,80.769,0,0,0,11.47,10.561c.265.2.538.4.8.593.134-.1.241-.172.344-.25a84.866,84.866,0,0,0,9.3-8.088,50.024,50.024,0,0,0,6.855-8.385,21.84,21.84,0,0,0,3.3-7.978,11.326,11.326,0,0,0-10.932-13.429,10.646,10.646,0,0,0-7.457,2.687c-.5.425-.934.927-1.411,1.407-.108-.114-.181-.187-.248-.265a11.271,11.271,0,0,0-12.941-2.911,10.964,10.964,0,0,0-6.5,7.785c-.143.577-.209,1.173-.311,1.76v1.8a.674.674,0,0,1,.066.176A17.431,17.431,0,0,0,497.288,287.6Zm.819-7.577a8.635,8.635,0,0,1,16.122-3.884c.409.692.787,1.4,1.223,2.18.391-.706.739-1.343,1.095-1.974a8.446,8.446,0,0,1,5.282-4.217,8.269,8.269,0,0,1,8.547,2.33,8.68,8.68,0,0,1,2.071,8.688,22.1,22.1,0,0,1-3.613,7.342,60.527,60.527,0,0,1-10.225,10.91c-1.027.88-2.075,1.736-3.14,2.625-.608-.487-1.2-.948-1.779-1.429a75.364,75.364,0,0,1-7.484-7.02,38.254,38.254,0,0,1-6.49-9.031A13.762,13.762,0,0,1,498.107,280.026Z" fill="#d10023"/>
    </g>
  </g>
</svg>
