<svg xmlns="http://www.w3.org/2000/svg" width="18" height="16.761" viewBox="0 0 18 16.761">
  <g id="Group_1117" data-name="Group 1117" transform="translate(-941.279 -81.651)">
    <g id="Group_1116" data-name="Group 1116">
      <path id="Path_1042" data-name="Path 1042" d="M951.136,82.8c-.316.255-.593.559-.894.847-.035-.041-.078-.093-.123-.144a5.04,5.04,0,0,0-4.706-1.775,4.892,4.892,0,0,0-4.014,5.893,5.625,5.625,0,0,0,1.31,2.413c2.273,2.663,4.526,5.343,6.789,8.014a.808.808,0,0,0,1.346.015c2.423-2.789,4.868-5.559,7.254-8.379a4.606,4.606,0,0,0,.73-5.083A4.937,4.937,0,0,0,951.136,82.8Zm5.694,5.8c-2.181,2.547-4.391,5.069-6.589,7.6-.01.011-.024.02-.1.094a.7.7,0,0,0-.076-.168c-2.144-2.538-4.315-5.053-6.427-7.617a3.19,3.19,0,0,1,1.681-5.056,3.439,3.439,0,0,1,3.614,1.251c.441.566.872,1.141,1.331,1.744.45-.592.876-1.159,1.309-1.72a3.43,3.43,0,0,1,4-1.151A3.208,3.208,0,0,1,956.83,88.6Z" fill="#333"/>
    </g>
  </g>
</svg>
