<svg xmlns="http://www.w3.org/2000/svg" width="17.891" height="22" viewBox="0 0 17.891 22">
  <g id="ic_lock" transform="translate(-489.417 1987.652)">
    <path id="Path_2294" data-name="Path 2294" d="M507.291-1967.949c.031-1.305.009-2.611.01-3.916q0-2.223,0-4.444a2.354,2.354,0,0,0-1.786-2.345,2.5,2.5,0,0,0-.609-.077q-3.552-.008-7.1,0h-4.807v-.125q0-.848,0-1.7a5.357,5.357,0,0,1,3.45-4.963,5.383,5.383,0,0,1,6.751,2.676.882.882,0,0,0,.87.537.86.86,0,0,0,.792-.565.787.787,0,0,0-.019-.664,7.171,7.171,0,0,0-1.821-2.391,7.018,7.018,0,0,0-3.543-1.638c-.243-.038-.488-.06-.733-.089h-.786c-.181.021-.362.04-.543.064a6.993,6.993,0,0,0-3.762,1.7,6.957,6.957,0,0,0-2.329,4.113,9.186,9.186,0,0,0-.111,1.306c-.019.568-.007,1.137,0,1.7a.127.127,0,0,1-.109.147,2.342,2.342,0,0,0-1.676,2.258q-.008,4.158,0,8.316a2.365,2.365,0,0,0,2.005,2.36l.153.028h13.559a4.762,4.762,0,0,0,.729-.205A2.246,2.246,0,0,0,507.291-1967.949Zm-1.776-.738a1.181,1.181,0,0,1-1.007,1.226,3.931,3.931,0,0,1-.6.018h-5.544q-2.94,0-5.88,0a1.24,1.24,0,0,1-.927-.351,1.169,1.169,0,0,1-.349-.859q0-3.53,0-7.059a1.182,1.182,0,0,1,1.239-1.21h8.709c1.051,0,2.1,0,3.154,0a1.176,1.176,0,0,1,1.176.931,1.415,1.415,0,0,1,.032.311Q505.517-1972.183,505.515-1968.687Z" fill="#999"/>
    <path id="Path_2295" data-name="Path 2295" d="M499.433-1972.785a1.894,1.894,0,0,0-.021-.291,1.167,1.167,0,0,0-1.154-.979,1.15,1.15,0,0,0-1.131,1,7.567,7.567,0,0,0,0,.783h0a7.665,7.665,0,0,0,.005.773,1.159,1.159,0,0,0,1.142,1.015,1.147,1.147,0,0,0,1.141-1C499.447-1971.916,499.429-1972.352,499.433-1972.785Z" fill="#999"/>
  </g>
</svg>
