<svg xmlns="http://www.w3.org/2000/svg" width="143.859" height="70" viewBox="0 0 143.859 70">
  <g id="ic_mail_green" transform="translate(-648.071 -265.785)">
    <path id="Path_3388" data-name="Path 3388" d="M731.457,335.783q-19.444,0-38.89,0c-4.352,0-7.63-2.484-8.311-6.451a10.544,10.544,0,0,1,.119-3.8q5.21-25.587,10.518-51.154a10.874,10.874,0,0,1,10.574-8.587q39.045-.015,78.091,0c5.7,0,9.3,4.482,8.159,10.043q-5.26,25.525-10.514,51.051a10.935,10.935,0,0,1-10.856,8.892Q750.9,335.791,731.457,335.783Zm53.2-58.106-1.156.85L743.58,307.878a10.3,10.3,0,0,1-14.288-1.3q-13.691-14.456-27.4-28.894c-.241-.254-.5-.489-.8-.775a3.065,3.065,0,0,0-.137.341q-5.1,24.764-10.19,49.527c-.389,1.889.095,2.466,2.038,2.466q38.732,0,77.464,0a4.388,4.388,0,0,0,4.539-3.72q4.113-19.939,8.226-39.88C783.566,283.078,784.081,280.511,784.658,277.677Zm-78.715-5.282c.224.268.307.378.4.476q13.98,14.744,27.966,29.48a3.742,3.742,0,0,0,5.311.329q20.122-14.791,40.24-29.59c.255-.188.492-.4.851-.7Z" fill="#01756a"/>
    <path id="Path_3389" data-name="Path 3389" d="M666.829,294.165c5.078,0,10.157-.014,15.235.007a3.247,3.247,0,0,1,3.068,4.741,3.4,3.4,0,0,1-3.356,1.8c-6.322-.014-12.644,0-18.966,0-3.731,0-7.462.024-11.193-.009a3.279,3.279,0,1,1-.023-6.539Q659.211,294.157,666.829,294.165Z" fill="#01756a"/>
    <path id="Path_3390" data-name="Path 3390" d="M676.346,274.068c3.249,0,6.5-.021,9.749.007a3.248,3.248,0,0,1,3.17,4.484,3.144,3.144,0,0,1-3.094,2.039q-9.854.027-19.707,0a3.2,3.2,0,0,1-3.3-3.273,3.248,3.248,0,0,1,3.431-3.249C669.846,274.057,673.1,274.068,676.346,274.068Z" fill="#01756a"/>
    <path id="Path_3391" data-name="Path 3391" d="M669.729,318.8c-2.381,0-4.763.006-7.144,0-2.211-.005-3.73-1.363-3.71-3.3.02-1.915,1.506-3.243,3.658-3.246q7.145-.008,14.289,0c2.181,0,3.621,1.3,3.636,3.243.016,1.974-1.454,3.3-3.688,3.3C674.423,318.8,672.076,318.8,669.729,318.8Z" fill="#01756a"/>
  </g>
</svg>
