<svg xmlns="http://www.w3.org/2000/svg" width="18.001" height="18" viewBox="0 0 18.001 18">
  <g id="profile" transform="translate(-369.423 -81.032)">
    <g id="Group_3058" data-name="Group 3058">
      <path id="Path_3062" data-name="Path 3062" d="M369.842,98.1a2.363,2.363,0,0,0,1.946.931c1.243.007,2.485,0,3.728,0,.03,0,.059,0,.088,0v-1.08h-2.99a2.455,2.455,0,0,1-.732-.11,1.914,1.914,0,0,1-1.373-1.791q0-6.015,0-12.029A1.7,1.7,0,0,1,370.837,83a2.077,2.077,0,0,1,1.779-.876q5.807,0,11.615,0a2.52,2.52,0,0,1,.519.054,1.943,1.943,0,0,1,1.59,1.937c-.015.609,0,1.218,0,1.827V96a1.818,1.818,0,0,1-.71,1.475,2.122,2.122,0,0,1-1.37.469h-3.016v1.081l.044,0q1.928,0,3.856,0a2.18,2.18,0,0,0,.9-.193,2.078,2.078,0,0,0,1.376-1.968q.017-6.837,0-13.673a1.909,1.909,0,0,0-.083-.568,2.218,2.218,0,0,0-1.659-1.52c-.126-.034-.256-.05-.385-.074H371.554a5.156,5.156,0,0,0-.569.129,2.188,2.188,0,0,0-1.515,1.6c-.019.077-.031.155-.047.232V97.065a.25.25,0,0,1,.016.051A1.956,1.956,0,0,0,369.842,98.1Z" fill="#fff"/>
      <path id="Path_3063" data-name="Path 3063" d="M377.846,85.641a2.753,2.753,0,0,0-2.964-1.032,2.9,2.9,0,0,0-1.356,4.693,2.747,2.747,0,0,0,2.963.828A2.909,2.909,0,0,0,377.846,85.641Zm-1.8,3.422a1.687,1.687,0,0,1-2.09-1.36c-.016-.1-.022-.206-.033-.309a1.722,1.722,0,0,1,1.343-1.7,1.682,1.682,0,0,1,1.985,1.262A1.729,1.729,0,0,1,376.05,89.063Z" fill="#fff"/>
      <path id="Path_3064" data-name="Path 3064" d="M385.177,88.427h-4.492v1.3h4.492Z" fill="#fff"/>
      <path id="Path_3065" data-name="Path 3065" d="M373.9,90.415c-.515.176-1.029.353-1.543.526a.11.11,0,0,0-.089.107c-.018.152-.046.3-.07.453l-.414,2.635c-.033.211-.065.422-.1.638l1.117.192a.664.664,0,0,0,.018-.071q.213-1.5.425-3a.107.107,0,0,1,.084-.1c.218-.068.435-.143.652-.215l.664-.222-.338-1.075Z" fill="#fff"/>
      <path id="Path_3066" data-name="Path 3066" d="M380.686,92.333h4.491V91.039h-4.491Z" fill="#fff"/>
      <path id="Path_3067" data-name="Path 3067" d="M385.176,93.648h-4.49v1.294h4.49Z" fill="#fff"/>
      <path id="Path_3068" data-name="Path 3068" d="M377.958,91.935c.086.562.175,1.123.263,1.685.069.443.139.886.211,1.346l1.087-.155c-.049-.306-.1-.6-.14-.885q-.223-1.422-.446-2.844a.116.116,0,0,0-.091-.106c-.472-.158-.942-.321-1.413-.482l-.536-.181-.335,1.074.114.04c.4.133.793.267,1.191.4A.12.12,0,0,1,377.958,91.935Z" fill="#fff"/>
      <path id="Path_3069" data-name="Path 3069" d="M379.414,97.825c-.661,0-1.322,0-1.983,0a.742.742,0,0,0-.182.021.6.6,0,0,0,.136,1.183c.346,0,.692,0,1.038,0s.685,0,1.028,0a.572.572,0,0,0,.531-.331A.6.6,0,0,0,379.414,97.825Z" fill="#fff"/>
      <path id="Path_3070" data-name="Path 3070" d="M382.926,85.816h-2.24v1.291h2.24Z" fill="#fff"/>
    </g>
  </g>
</svg>
