<svg xmlns="http://www.w3.org/2000/svg" width="18" height="18" viewBox="0 0 18 18">
  <g id="Group_3595" data-name="Group 3595" transform="translate(-369.787 -81.032)">
    <g id="Group_3594" data-name="Group 3594">
      <path id="Path_3615" data-name="Path 3615" d="M370.206,98.1a2.363,2.363,0,0,0,1.946.931c1.242.007,2.485,0,3.728,0,.029,0,.059,0,.088,0v-1.08h-2.99a2.455,2.455,0,0,1-.732-.11,1.914,1.914,0,0,1-1.373-1.791q0-6.015,0-12.029A1.7,1.7,0,0,1,371.2,83a2.078,2.078,0,0,1,1.779-.876q5.808,0,11.616,0a2.5,2.5,0,0,1,.518.054,1.942,1.942,0,0,1,1.59,1.937c-.014.609,0,1.218,0,1.827V96a1.816,1.816,0,0,1-.711,1.475,2.119,2.119,0,0,1-1.369.469h-3.016v1.081l.044,0q1.928,0,3.856,0a2.183,2.183,0,0,0,.9-.193,2.078,2.078,0,0,0,1.375-1.968q.018-6.837,0-13.673a1.878,1.878,0,0,0-.084-.568,2.215,2.215,0,0,0-1.658-1.52c-.126-.034-.257-.05-.385-.074H371.918a5.1,5.1,0,0,0-.569.129,2.187,2.187,0,0,0-1.515,1.6c-.019.077-.031.155-.047.232V97.065a.25.25,0,0,1,.016.051A1.955,1.955,0,0,0,370.206,98.1Z" fill="#333"/>
      <path id="Path_3616" data-name="Path 3616" d="M378.21,85.641a2.753,2.753,0,0,0-2.964-1.032A2.9,2.9,0,0,0,373.89,89.3a2.746,2.746,0,0,0,2.963.828A2.91,2.91,0,0,0,378.21,85.641Zm-1.8,3.422a1.686,1.686,0,0,1-2.089-1.36c-.016-.1-.022-.206-.033-.309a1.721,1.721,0,0,1,1.343-1.7,1.682,1.682,0,0,1,1.985,1.262A1.73,1.73,0,0,1,376.413,89.063Z" fill="#333"/>
      <path id="Path_3617" data-name="Path 3617" d="M385.541,88.427h-4.492v1.3h4.492Z" fill="#333"/>
      <path id="Path_3618" data-name="Path 3618" d="M374.261,90.415c-.514.176-1.028.353-1.543.526a.111.111,0,0,0-.089.107c-.017.152-.046.3-.069.453l-.414,2.635c-.033.211-.066.422-.1.638l1.117.192c.007-.03.014-.05.017-.071q.215-1.5.426-3a.106.106,0,0,1,.083-.1c.219-.068.435-.143.652-.215l.665-.222-.338-1.075Z" fill="#333"/>
      <path id="Path_3619" data-name="Path 3619" d="M381.05,92.333h4.491V91.039H381.05Z" fill="#333"/>
      <path id="Path_3620" data-name="Path 3620" d="M385.54,93.648h-4.491v1.294h4.491Z" fill="#333"/>
      <path id="Path_3621" data-name="Path 3621" d="M378.322,91.935q.129.843.262,1.685c.07.443.139.886.212,1.346l1.087-.155c-.049-.306-.1-.6-.141-.885q-.224-1.422-.446-2.844a.115.115,0,0,0-.091-.106c-.471-.158-.942-.321-1.412-.482l-.537-.181-.335,1.074.115.04c.4.133.793.267,1.191.4A.12.12,0,0,1,378.322,91.935Z" fill="#333"/>
      <path id="Path_3622" data-name="Path 3622" d="M379.778,97.825c-.661,0-1.322,0-1.983,0a.742.742,0,0,0-.182.021.6.6,0,0,0,.136,1.183c.346,0,.692,0,1.037,0s.686,0,1.029,0a.572.572,0,0,0,.531-.331A.6.6,0,0,0,379.778,97.825Z" fill="#333"/>
      <path id="Path_3623" data-name="Path 3623" d="M383.289,85.816H381.05v1.291h2.239Z" fill="#333"/>
    </g>
  </g>
</svg>
