<svg xmlns="http://www.w3.org/2000/svg" width="8.63" height="13.032" viewBox="0 0 8.63 13.032">
  <g id="ic_question_mark_red" transform="translate(-1073.567 -444.378)">
    <path id="Path_3184" data-name="Path 3184" d="M1076.121,453.623a4.453,4.453,0,0,1,.194-1.364,3.029,3.029,0,0,1,.607-1.084,7.448,7.448,0,0,1,.713-.731q.3-.255.863-.642c.388-.271.675-.484.863-.643a2.743,2.743,0,0,0,.546-.67,1.772,1.772,0,0,0,.264-.941q0-1.551-2.553-1.551a12.587,12.587,0,0,0-3.7.616l-.352-1.619a15.456,15.456,0,0,1,4.315-.616,5.344,5.344,0,0,1,3.2.818,2.567,2.567,0,0,1,1.119,2.176,3.511,3.511,0,0,1-.159,1.1,2.34,2.34,0,0,1-.519.872,7.14,7.14,0,0,1-.626.607q-.262.222-.775.572c-.352.247-.613.442-.783.582a6.918,6.918,0,0,0-.617.6,2.255,2.255,0,0,0-.511.854,3.513,3.513,0,0,0-.149,1.065Zm-.089,3.787v-2.289h2.114v2.289Z" fill="#d10023"/>
  </g>
</svg>
