<svg xmlns="http://www.w3.org/2000/svg" width="12" height="11.999" viewBox="0 0 12 11.999">
  <g id="ic_right_red" transform="translate(-1148.088 -535.229)">
    <g id="Group_3415" data-name="Group 3415">
      <path id="Path_3433" data-name="Path 3433" d="M1148.882,547.228a.794.794,0,0,1-.562-1.356l4.644-4.643-4.644-4.643a.795.795,0,0,1,1.124-1.124l5.206,5.205a.8.8,0,0,1,0,1.124l-5.206,5.2A.793.793,0,0,1,1148.882,547.228Z" fill="#bc282d"/>
    </g>
    <g id="Group_3416" data-name="Group 3416">
      <path id="Path_3434" data-name="Path 3434" d="M1154.088,547.228a.794.794,0,0,1-.562-1.356l4.643-4.643-4.643-4.643a.795.795,0,0,1,1.124-1.124l5.2,5.205a.8.8,0,0,1,0,1.124l-5.2,5.2A.794.794,0,0,1,1154.088,547.228Z" fill="#bc282d"/>
    </g>
  </g>
</svg>
