<svg xmlns="http://www.w3.org/2000/svg" width="18.458" height="20" viewBox="0 0 18.458 20">
  <g id="ic_square" transform="translate(-324.072 -439.255)">
    <path id="Path_3147" data-name="Path 3147" d="M341.663,444.12a.454.454,0,0,0,.008-.871c-2.461-1.229-4.919-2.464-7.384-3.683a6.771,6.771,0,0,0-.981-.311,7.375,7.375,0,0,0-1.039.337c-2.443,1.207-4.877,2.433-7.316,3.649-.19.1-.338.212-.34.439s.146.346.336.441q3.693,1.844,7.384,3.692a2.038,2.038,0,0,0,1.926.009Q337.961,445.971,341.663,444.12Z" fill="#bc282d"/>
    <path id="Path_3148" data-name="Path 3148" d="M331.8,449.224q-3.5-1.613-7-3.232c-.438-.2-.724-.013-.724.471q0,3.913,0,7.827a1.824,1.824,0,0,0,1.126,1.779q3.345,1.555,6.7,3.094c.474.218.743.043.743-.485q0-1.023,0-2.047v-2.047q0-1,0-2.008t.006-2.008A1.344,1.344,0,0,0,331.8,449.224Z" fill="#bc282d"/>
    <path id="Path_3149" data-name="Path 3149" d="M332.638,456.631v-2.047q0-1,0-2.008,0,1,0,2.008Z" fill="#bc282d"/>
    <path id="ic_square-2" data-name="ic_square" d="M342.528,446.505c0-.545-.264-.718-.754-.492q-3.489,1.608-6.978,3.217a1.319,1.319,0,0,0-.834,1.3q0,1.011,0,2.021t0,2.022v2.085q0,1.043,0,2.085c0,.241.07.446.316.491a.826.826,0,0,0,.461-.086q3.306-1.514,6.606-3.043a1.88,1.88,0,0,0,1.185-1.848C342.524,451.671,342.528,449.088,342.528,446.505Z" fill="#bc282d"/>
    <path id="Path_3151" data-name="Path 3151" d="M333.965,452.548q0,1.011,0,2.022v0Q333.964,453.559,333.965,452.548Z" fill="#bc282d"/>
  </g>
</svg>
