<svg xmlns="http://www.w3.org/2000/svg" width="22" height="16.815" viewBox="0 0 22 16.815">
  <g id="ic_three_user_red" transform="translate(-323.301 -410.847)">
    <path id="Path_3140" data-name="Path 3140" d="M338.28,426.8a.234.234,0,0,0,.159-.245c-.007-1.021.011-2.042-.011-3.063a3.67,3.67,0,0,0-3.278-3.505,25.125,25.125,0,0,0-3.4,0,3.645,3.645,0,0,0-3.263,3.354c-.053,1.091-.026,2.186-.025,3.279a.26.26,0,0,0,.144.192,17.472,17.472,0,0,0,3.212.72c.422.052.847.09,1.27.135h1.392c.38-.044.76-.08,1.139-.133A9.126,9.126,0,0,0,338.28,426.8Z" fill="#bc282d"/>
    <path id="ic_three_user_red-2" data-name="ic_three_user_red" d="M339.627,416.918c-.79-.015-1.579,0-2.369,0a.58.58,0,0,0-.1.011,10.2,10.2,0,0,1-.392,1.34,9.626,9.626,0,0,1-.717,1.164,4.48,4.48,0,0,1,3.113,4.669v.51a1.918,1.918,0,0,0,.217,0c.687-.092,1.385-.139,2.059-.293.636-.145,1.247-.4,1.868-.61v-3.391a1.6,1.6,0,0,1-.043-.165A3.729,3.729,0,0,0,339.627,416.918Z" transform="translate(2)" fill="#bc282d"/>
    <path id="Path_3142" data-name="Path 3142" d="M329.573,416.915c-.861,0-1.724-.012-2.585,0a3.735,3.735,0,0,0-3.681,3.717c-.008.97,0,1.941-.006,2.911,0,.15.041.218.188.252.9.209,1.8.444,2.7.63.5.1,1.013.125,1.559.188-.183-2.506.765-4.3,3.151-5.217a3.7,3.7,0,0,1-1.091-2.468C329.716,416.924,329.645,416.916,329.573,416.915Z" fill="#bc282d"/>
    <path id="Path_3143" data-name="Path 3143" d="M333.463,413.878a2.92,2.92,0,1,0,2.914,2.918A2.916,2.916,0,0,0,333.463,413.878Z" fill="#bc282d"/>
    <path id="Path_3144" data-name="Path 3144" d="M326.434,416.012a2.822,2.822,0,0,0,3.174.376.484.484,0,0,0,.3-.38,3.45,3.45,0,0,1,1.156-1.941.422.422,0,0,0,.16-.372,2.918,2.918,0,0,0-2.918-2.846c-.066,0-.131,0-.2,0s-.144.016-.215.028a2.8,2.8,0,0,0-2.4,2.083A2.749,2.749,0,0,0,326.434,416.012Z" fill="#bc282d"/>
    <path id="Path_3145" data-name="Path 3145" d="M337.815,410.886a2.939,2.939,0,0,0-2.429,2.643.3.3,0,0,0,.145.3,3.549,3.549,0,0,1,1.505,2.4.3.3,0,0,0,.221.275,2.928,2.928,0,0,0,3.973-2.736c-.013-.151-.013-.3-.04-.453A2.917,2.917,0,0,0,337.815,410.886Z" fill="#bc282d"/>
  </g>
</svg>
