<svg xmlns="http://www.w3.org/2000/svg" width="18" height="18" viewBox="0 0 18 18">
  <g id="ic_time_red" transform="translate(-841.446 -354.18)">
    <path id="Path_3050" data-name="Path 3050" d="M850.433,372.18a9,9,0,1,0-8.987-9A8.994,8.994,0,0,0,850.433,372.18Zm.021-16.551a7.55,7.55,0,1,1-7.557,7.519A7.567,7.567,0,0,1,850.454,355.629Z" fill="#c1272d"/>
    <path id="Path_3051" data-name="Path 3051" d="M850.521,363.908c.491,0,.982,0,1.474,0,.808,0,1.617,0,2.426,0a.73.73,0,1,0,.011-1.457q-1.521,0-3.04,0h-.217v-.208q0-2.057,0-4.114a.78.78,0,0,0-.2-.564.728.728,0,0,0-.789-.186.739.739,0,0,0-.472.738q0,2.494,0,4.99A.737.737,0,0,0,850.521,363.908Z" fill="#c1272d"/>
  </g>
</svg>
