<svg xmlns="http://www.w3.org/2000/svg" viewBox="0 0 22.29 25.66"><defs><style>.cls-1{fill:#fff;}</style></defs><g id="Layer_2" data-name="Layer 2"><g id="Layer_1-2" data-name="Layer 1"><path class="cls-1" d="M12,0h-.32V.1c0,.55,0,1.09,0,1.64q0,6.63,0,13.25c0,1.13,0,2.26-.06,3.39a3.68,3.68,0,0,1-.06.57,2.67,2.67,0,0,1-.34.75A3.66,3.66,0,0,1,9.3,21.32a3.89,3.89,0,0,1-1.13.2,3,3,0,0,1-1.29-.18,3.72,3.72,0,0,1-2.19-2.1,2.54,2.54,0,0,1-.22-.86c0-.19,0-.38,0-.58s0-.42,0-.63a2.7,2.7,0,0,1,.35-1,3.56,3.56,0,0,1,2-1.74,3.78,3.78,0,0,1,2.33,0l.09,0v-.07c0-1,0-2.07,0-3.1,0-.51,0-1,0-1.51,0,0,0-.06,0-.07a7.48,7.48,0,0,0-1.05-.11,7.72,7.72,0,0,0-2.14.23A8.08,8.08,0,0,0,.41,15,6.64,6.64,0,0,0,0,16.73c0,.3,0,.6,0,.9a7.63,7.63,0,0,0,.12,1.51,7.87,7.87,0,0,0,1.06,2.72A8,8,0,0,0,5.5,25.27a7.54,7.54,0,0,0,1.63.36,10.85,10.85,0,0,0,1.14,0,8.46,8.46,0,0,0,1.33-.15,8,8,0,0,0,6.05-5.37,7.89,7.89,0,0,0,.4-2.31c0-.38,0-.77,0-1.15,0-2.65,0-5.29,0-7.94v-.1a11.15,11.15,0,0,0,6.22,2V6.38h-.05c-.26,0-.51-.07-.76-.12a8.52,8.52,0,0,1-2.3-.76,5.8,5.8,0,0,1-2.05-1.76A6.9,6.9,0,0,1,15.89,0H12Z"/></g></g></svg>