<svg xmlns="http://www.w3.org/2000/svg" width="20" height="19.613" viewBox="0 0 20 19.613">
  <g id="ic_user_red" transform="translate(-139.996 -409.448)">
    <path id="Path_3152" data-name="Path 3152" d="M142.459,426.316c.412-.01.826,0,1.239,0h.222v-.258q0-2.352,0-4.7a1.209,1.209,0,0,1,1.321-1.324q4.754,0,9.508,0a1.205,1.205,0,0,1,1.317,1.308v4.951a.364.364,0,0,0,.071.024c.5,0,.994.007,1.491,0a.309.309,0,0,0,.192-.105,2.125,2.125,0,0,0,.524-2.117c-.561-2-1.146-3.99-1.732-5.981a1.953,1.953,0,0,0-1.833-1.417c-.671,0-1.343.006-2.014,0a.255.255,0,0,0-.257.152c-.233.409-.476.813-.715,1.218-.163.276-.327.551-.5.848l-1.317-2.226-.655,1.107-.66,1.117c-.056-.091-.1-.162-.141-.233-.361-.611-.724-1.221-1.079-1.835a.258.258,0,0,0-.26-.148c-.594.007-1.189.031-1.781,0a2.019,2.019,0,0,0-2.056,1.514c-.561,1.952-1.136,3.9-1.691,5.852a2.179,2.179,0,0,0,.474,2.115A.394.394,0,0,0,142.459,426.316Z" fill="#bc282d"/>
    <path id="Path_3153" data-name="Path 3153" d="M154.722,421.068h-9.448c-.3,0-.311.013-.311.3V426.3h10.059v-.214q0-2.363,0-4.724C155.022,421.085,155.005,421.068,154.722,421.068Z" fill="#bc282d"/>
    <path id="Path_3154" data-name="Path 3154" d="M149.958,416.409a3.481,3.481,0,1,0-3.445-3.511A3.5,3.5,0,0,0,149.958,416.409Z" fill="#bc282d"/>
    <path id="Path_3155" data-name="Path 3155" d="M140,429.061h20v-1.689H140Z" fill="#bc282d"/>
  </g>
</svg>
