<svg xmlns="http://www.w3.org/2000/svg" width="20.012" height="20" viewBox="0 0 20.012 20">
  <g id="ic_website_red" transform="translate(-139.99 -469.255)">
    <path id="Path_3146" data-name="Path 3146" d="M149.978,469.255A10,10,0,1,0,160,479.306,10.011,10.011,0,0,0,149.978,469.255Zm-4.232,5.26a8.616,8.616,0,0,1,.482-2.616.5.5,0,0,1,.225-.255,8.047,8.047,0,0,1,2.982-.77.439.439,0,0,1,.285.1,9.824,9.824,0,0,1,2.047,2.652,20.1,20.1,0,0,1,2.072,5.664.214.214,0,0,1-.134.281,21.421,21.421,0,0,1-5.947,2.188c-.206.044-.413.082-.62.12-.067.013-.134.02-.253.036-.19-.668-.394-1.322-.56-1.986A18.485,18.485,0,0,1,145.746,474.515Zm-3.765,7.266a8.317,8.317,0,0,1,2.173-8.561,1.247,1.247,0,0,1,.1-.084,20.8,20.8,0,0,0,1.017,8.978c-.675,0-1.313.018-1.951-.006-.378-.015-.754-.1-1.131-.148A.223.223,0,0,1,141.981,481.781Zm.872,1.9c.277.016.511.043.744.041.659-.006,1.318-.012,1.976-.043a.342.342,0,0,1,.407.24,15.628,15.628,0,0,0,1.894,3.34c.026.036.046.076.091.15A8.5,8.5,0,0,1,142.853,483.686Zm11.023,2.635a.933.933,0,0,1-.621.689,9.506,9.506,0,0,1-2.585.627.552.552,0,0,1-.473-.159,11.352,11.352,0,0,1-2.29-3.2c-.137-.265-.261-.536-.4-.835a23.748,23.748,0,0,0,6.643-2.277c.027.275.055.52.073.767A12.726,12.726,0,0,1,153.876,486.321Zm4.4-8.358c.68,2-.774,6.21-2.511,7.38.033-.806.106-1.639.089-2.47s-.127-1.638-.188-2.458a.275.275,0,0,1,.092-.211,11.607,11.607,0,0,0,2.457-2.193A.35.35,0,0,1,158.278,477.963Zm-.691-1.939a5.785,5.785,0,0,1-1.44,1.831c-.262.236-.54.453-.831.7a23.365,23.365,0,0,0-1.267-3.9,18.4,18.4,0,0,0-1.991-3.548c.28.088.565.163.839.268a8.4,8.4,0,0,1,4.684,4.256A.415.415,0,0,1,157.587,476.024Z" fill="#bc282d"/>
  </g>
</svg>
