<svg xmlns="http://www.w3.org/2000/svg" viewBox="0 0 16 16"><defs><style>.cls-1{fill:#4d4d4d;}.cls-2{fill:#fff;}</style></defs><g id="Layer_2" data-name="Layer 2"><g id="Layer_1-2" data-name="Layer 1"><path class="cls-1" d="M.23,9.9a7.94,7.94,0,0,0,4.5,5.4A7.75,7.75,0,0,0,8.68,16a7.88,7.88,0,0,0,2.43-.6,8,8,0,0,0,4.81-6.26,7.7,7.7,0,0,0-.13-2.91,7.88,7.88,0,0,0-3.08-4.66A7.75,7.75,0,0,0,8.85.05L8.36,0H7.64L7.15.05A7.68,7.68,0,0,0,3.92,1.12,8,8,0,0,0,.2,6.21,8.48,8.48,0,0,0,0,7.55s0,.06,0,.09v.72s0,.06,0,.09A7.16,7.16,0,0,0,.23,9.9Z"/><path class="cls-2" d="M9.32,7.9,9.45,8l-.14.12L6.54,10.88,6.45,11a.54.54,0,1,0,.83.7L10.5,8.45a.56.56,0,0,0,0-.9L7.56,4.61a3.64,3.64,0,0,0-.34-.34.54.54,0,0,0-.89.29.56.56,0,0,0,.19.54Z"/></g></g></svg>
