<svg xmlns="http://www.w3.org/2000/svg" width="40" height="38.18" viewBox="0 0 40 38.18">
    <g id="Group_49" data-name="Group 49" transform="translate(-446.667 -602.153)">
        <path id="Path_29" data-name="Path 29" d="M448.5,620.625a37.836,37.836,0,0,0,5.889,8.553,80.653,80.653,0,0,0,11.47,10.561c.265.2.538.4.805.594.134-.1.24-.173.343-.251a84.759,84.759,0,0,0,9.3-8.088,50.119,50.119,0,0,0,6.855-8.384,21.871,21.871,0,0,0,3.3-7.979A11.327,11.327,0,0,0,475.536,602.2a10.648,10.648,0,0,0-7.457,2.687c-.5.426-.933.927-1.411,1.407-.107-.114-.181-.187-.248-.264a10.768,10.768,0,0,0-3.333-2.6,11.269,11.269,0,0,0-16.11,7.471c-.142.578-.209,1.174-.31,1.761v1.8a.724.724,0,0,1,.065.176A17.43,17.43,0,0,0,448.5,620.625Z" fill="#fff"/>
        <g id="Group_48" data-name="Group 48">
            <path id="Path_30" data-name="Path 30" d="M448.5,620.625a37.836,37.836,0,0,0,5.889,8.553,80.653,80.653,0,0,0,11.47,10.561c.265.2.538.4.805.594.134-.1.24-.173.343-.251a84.759,84.759,0,0,0,9.3-8.088,50.119,50.119,0,0,0,6.855-8.384,21.871,21.871,0,0,0,3.3-7.979A11.327,11.327,0,0,0,475.536,602.2a10.648,10.648,0,0,0-7.457,2.687c-.5.426-.933.927-1.411,1.407-.107-.114-.181-.187-.248-.264a10.768,10.768,0,0,0-3.333-2.6,11.269,11.269,0,0,0-16.11,7.471c-.142.578-.209,1.174-.31,1.761v1.8a.724.724,0,0,1,.065.176A17.43,17.43,0,0,0,448.5,620.625Zm.819-7.578a8.635,8.635,0,0,1,16.122-3.883c.409.691.787,1.4,1.223,2.18.392-.707.739-1.343,1.1-1.975a8.437,8.437,0,0,1,5.282-4.216,8.268,8.268,0,0,1,8.546,2.33,8.68,8.68,0,0,1,2.071,8.688,22.083,22.083,0,0,1-3.612,7.341,60.538,60.538,0,0,1-10.226,10.911c-1.027.88-2.075,1.735-3.14,2.624-.608-.487-1.2-.948-1.778-1.428a75.284,75.284,0,0,1-7.484-7.021,38.19,38.19,0,0,1-6.491-9.031A13.774,13.774,0,0,1,449.32,613.047Z" fill="#969696"/>
        </g>
    </g>
</svg>
