<svg xmlns="http://www.w3.org/2000/svg" width="18" height="16.762" viewBox="0 0 18 16.762">
  <g id="Group_2944" data-name="Group 2944" transform="translate(-1001.418 -177.724)">
    <g id="Group_2943" data-name="Group 2943">
      <path id="Path_2896" data-name="Path 2896" d="M1011.274,178.868c-.316.256-.592.56-.894.848-.034-.041-.077-.093-.122-.144a5.042,5.042,0,0,0-4.707-1.775,4.893,4.893,0,0,0-4.014,5.893,5.632,5.632,0,0,0,1.311,2.413c2.273,2.663,4.526,5.342,6.789,8.013a.808.808,0,0,0,1.346.016c2.423-2.789,4.868-5.559,7.254-8.379a4.608,4.608,0,0,0,.73-5.083A4.939,4.939,0,0,0,1011.274,178.868Zm5.694,5.8c-2.18,2.548-4.391,5.07-6.589,7.6-.01.012-.023.021-.1.1a.678.678,0,0,0-.076-.168c-2.144-2.538-4.315-5.053-6.427-7.618a3.19,3.19,0,0,1,1.682-5.055,3.437,3.437,0,0,1,3.614,1.25c.441.567.871,1.142,1.331,1.745.45-.592.876-1.159,1.309-1.72a3.429,3.429,0,0,1,4-1.151A3.207,3.207,0,0,1,1016.968,184.667Z" fill="#989898"/>
    </g>
  </g>
</svg>
