<svg xmlns="http://www.w3.org/2000/svg" width="16.487" height="16.001" viewBox="0 0 16.487 16.001">
  <g id="Group_2941" data-name="Group 2941" transform="translate(-1002.044 -218.104)">
    <g id="Group_2940" data-name="Group 2940">
      <path id="Path_2891" data-name="Path 2891" d="M1012.463,229.03a.735.735,0,0,0-.721.821q0,1.268,0,2.533v.251h-8.222V219.574h8.222v.265q0,1.266,0,2.532a.735.735,0,1,0,1.458,0q0-1.728,0-3.455a.744.744,0,0,0-.827-.815h-9.489a.748.748,0,0,0-.839.827q0,7.171,0,14.343a.748.748,0,0,0,.838.829h9.489a.747.747,0,0,0,.828-.837q0-1.7,0-3.408A.739.739,0,0,0,1012.463,229.03Z" fill="#989898"/>
      <path id="Path_2892" data-name="Path 2892" d="M1014.968,222.257a.925.925,0,0,0-.356-.218.7.7,0,0,0-.816.321.715.715,0,0,0,.12.89c.643.651,1.292,1.295,1.939,1.942.053.053.1.111.188.2h-5.76c-.734,0-1.467,0-2.2,0a.725.725,0,0,0-.752.83.75.75,0,0,0,.816.628h7.825l.042.071a2.254,2.254,0,0,0-.2.161c-.621.618-1.238,1.239-1.859,1.856a.742.742,0,0,0-.252.656.682.682,0,0,0,.481.589.732.732,0,0,0,.8-.209q1.629-1.633,3.261-3.263a.754.754,0,0,0,.007-1.183Q1016.613,223.89,1014.968,222.257Z" fill="#989898"/>
    </g>
  </g>
</svg>
