<svg xmlns="http://www.w3.org/2000/svg" width="20" height="14.994" viewBox="0 0 20 14.994">
  <path id="Path_3387" data-name="Path 3387" d="M505.872,428.159H490.854a2.481,2.481,0,0,0-2.492,2.491v9.955a2.486,2.486,0,0,0,2.027,2.511.467.467,0,0,1,.083.037h15.781c.109-.032.218-.063.326-.1a2.488,2.488,0,0,0,1.743-1.909.784.784,0,0,1,.04-.1V430.268c-.037-.122-.073-.244-.112-.365A2.48,2.48,0,0,0,505.872,428.159Zm-15.187,1.274h15.353l.021.047-7.7,6.6-7.689-6.587Zm-1.03,11.463c-.018-.17-.041-.291-.041-.412q0-3.806,0-7.61c0-.7,0-1.392,0-2.088a4.817,4.817,0,0,1,.056-.5l5.3,4.537Zm16.121,1.006q-7.408,0-14.818,0a4.1,4.1,0,0,1-.456-.055l5.424-6.2,1.525,1.306c.133.114.266.23.4.343a.66.66,0,0,0,1.019,0q.882-.753,1.763-1.511c.053-.045.109-.089.17-.139l5.419,6.191A3.8,3.8,0,0,1,505.776,441.9Zm1.335-1.4c0,.115-.019.229-.029.343l-.053.011-5.272-6.023,5.3-4.539c.022.214.053.382.053.551q0,3.492,0,6.984Q507.112,439.16,507.111,440.5Z" transform="translate(-488.362 -428.159)" fill="#999"/>
</svg>
