<svg xmlns="http://www.w3.org/2000/svg" width="32" height="32" viewBox="0 0 32 32">
  <circle id="Ellipse_71" data-name="Ellipse 71" cx="16" cy="16" r="16" fill="#fff"/>
  <path id="Path_3563" data-name="Path 3563" d="M1308.128,50.528a16.3,16.3,0,0,0,10.394-8.15,15.432,15.432,0,0,0,1.838-7.827,15.22,15.22,0,0,0-1.22-5.64,16.368,16.368,0,0,0-8.9-8.767,15.814,15.814,0,0,0-3.329-.937,15.625,15.625,0,0,0-9.12,1.25,16.236,16.236,0,0,0-6.4,5.291,15.823,15.823,0,0,0-2.684,6.061,14.818,14.818,0,0,0-.3,2.261c-.006.122-.033.243-.05.365v1.114c.017.131.044.261.052.393a15.111,15.111,0,0,0,.6,3.435,16.081,16.081,0,0,0,5.1,7.8,15.89,15.89,0,0,0,6.291,3.293,14.332,14.332,0,0,0,2.241.415c.355.035.711.06,1.066.09.042,0,.083.015.125.022h1.086c.169-.017.339-.04.509-.051A15.268,15.268,0,0,0,1308.128,50.528Zm-15.066-6.733c-.038-.049-.072-.091-.1-.135a14.043,14.043,0,0,1-2.363-4.859,14.963,14.963,0,0,1-.453-4.937,14.087,14.087,0,0,1,3.393-8.251,13.828,13.828,0,0,1,5.753-4,14.249,14.249,0,0,1,3.193-.783,14.725,14.725,0,0,1,3.091-.074,14.041,14.041,0,0,1,7.942,3.179,13.865,13.865,0,0,1,4.584,6.994,14.365,14.365,0,0,1,.522,2.931,14.67,14.67,0,0,1-.04,2.708,14.162,14.162,0,0,1-2.783,7.1c-.028.037-.058.073-.1.121a12.951,12.951,0,0,0-7.487-6.476c.276-.205.553-.391.808-.6a7.489,7.489,0,0,0,2.63-4.267,6.807,6.807,0,0,0-.641-4.7,7.589,7.589,0,0,0-4.654-3.892,6.644,6.644,0,0,0-2.526-.265,7.242,7.242,0,0,0-4.035,1.643,7.455,7.455,0,0,0-2.626,4.064,6.94,6.94,0,0,0,.725,5.212,7.689,7.689,0,0,0,2.542,2.714c.032.021.064.041.095.063a.125.125,0,0,1,.024.028A12.942,12.942,0,0,0,1293.062,43.795Zm13.005-7.323a5.907,5.907,0,0,1-3.866-.166,5.33,5.33,0,0,1-3.377-3.936,5.828,5.828,0,0,1,.252-3.575,5.336,5.336,0,0,1,3.895-3.349,5.817,5.817,0,0,1,3.629.252,5.38,5.38,0,0,1,3.356,3.99q.048.212.078.417c.008.052.015.1.021.155l0,.017a6.667,6.667,0,0,1,.039.714,6.182,6.182,0,0,1-.321,1.976,5.42,5.42,0,0,1-.517,1.1A5.333,5.333,0,0,1,1306.067,36.472ZM1303.9,49.264a14.427,14.427,0,0,1-4.762-.95,13.964,13.964,0,0,1-4.724-3c-.1-.1-.1-.1-.05-.23a10.579,10.579,0,0,1,6.063-5.944,10.326,10.326,0,0,1,2.767-.654,10.933,10.933,0,0,1,6.15,1.1,10.539,10.539,0,0,1,4.868,5.09c.08.172.152.348.239.545-.323.285-.629.571-.953.836a14,14,0,0,1-5.566,2.785A14.755,14.755,0,0,1,1303.9,49.264Z" transform="translate(-1288.364 -19)" fill="#ff8185"/>
</svg>
