<svg xmlns="http://www.w3.org/2000/svg" width="18" height="18" viewBox="0 0 18 18">
  <g id="Group_2942" data-name="Group 2942" transform="translate(-1001.911 -137.105)">
    <path id="Path_2893" data-name="Path 2893" d="M1010.49,151.576a.259.259,0,0,0-.206-.084q-3.262,0-6.524,0a.6.6,0,0,1-.648-.642v-2.958h8.384v-1.2h-8.384v-5.317a.607.607,0,0,1,.674-.674h13.037a.607.607,0,0,1,.674.674q0,2.588,0,5.174v.145h1.2v-.123q0-2.614,0-5.23a2.119,2.119,0,0,0-.029-.347,1.8,1.8,0,0,0-1.8-1.493q-1.417,0-2.835,0h-.138c0-.2,0-.385,0-.569a1.8,1.8,0,0,0-1.836-1.827q-1.766,0-3.532,0a2,2,0,0,0-.521.07,1.788,1.788,0,0,0-1.3,1.718c0,.2,0,.4,0,.606h-.133c-.941,0-1.882,0-2.824,0a1.93,1.93,0,0,0-.379.034,1.789,1.789,0,0,0-1.461,1.809q0,4.752,0,9.5a1.93,1.93,0,0,0,.02.314,1.791,1.791,0,0,0,1.82,1.528q3.813,0,7.626,0c.041,0,.081,0,.156-.006a.818.818,0,0,0-.092-.154C1011.126,152.213,1010.8,151.9,1010.49,151.576Zm-2.579-12.721a.575.575,0,0,1,.579-.547q1.816,0,3.633,0a.568.568,0,0,1,.571.517c.016.219,0,.441,0,.669h-4.789C1007.908,139.274,1007.9,139.064,1007.911,138.855Z" fill="#989898"/>
    <path id="Path_2894" data-name="Path 2894" d="M1018.772,149.764a.255.255,0,0,1-.068-.164c-.005-.521,0-1.042,0-1.563V147.9h-.138c-.517,0-1.035,0-1.552,0a.251.251,0,0,1-.2-.083c-.339-.344-.682-.685-1.024-1.027l-.1-.1c-.034.042-.058.08-.09.112-.341.342-.682.686-1.027,1.024a.265.265,0,0,1-.165.068c-.521,0-1.042,0-1.563,0h-.141v.137c0,.517,0,1.035,0,1.552a.251.251,0,0,1-.083.2c-.341.337-.679.677-1.019,1.016l-.11.115a1.2,1.2,0,0,1,.115.087c.342.341.686.682,1.024,1.028a.26.26,0,0,1,.068.164c.006.386,0,.772,0,1.158v.547h.148c.514,0,1.028,0,1.541,0a.247.247,0,0,1,.2.082c.34.344.683.685,1.025,1.027.028.029.058.056.106.1a1.17,1.17,0,0,1,.087-.114c.341-.343.682-.686,1.028-1.024a.255.255,0,0,1,.164-.068c.521-.006,1.042,0,1.563,0h.142v-.15c0-.513,0-1.027,0-1.54a.246.246,0,0,1,.083-.2c.344-.34.685-.683,1.027-1.025.028-.028.055-.057.1-.107a.9.9,0,0,1-.107-.078C1019.458,150.456,1019.113,150.113,1018.772,149.764Zm-1.189,1.749a.253.253,0,0,0-.087.205c.005.318,0,.636,0,.967-.047,0-.086.007-.126.007-.277,0-.554.005-.831,0a.289.289,0,0,0-.235.1c-.194.2-.4.4-.607.612a5.579,5.579,0,0,1-.4-.415.73.73,0,0,0-.716-.3,5.74,5.74,0,0,1-.67.005c0-.051-.006-.091-.007-.131,0-.285.005-.57,0-.854a.309.309,0,0,0-.078-.184c-.174-.185-.357-.362-.537-.543-.026-.026-.051-.053-.085-.09.209-.207.411-.412.619-.611a.26.26,0,0,0,.086-.206c-.005-.318,0-.636,0-.967.048,0,.088-.008.127-.008.285,0,.57,0,.854,0a.245.245,0,0,0,.2-.083c.2-.207.406-.41.626-.63a4.8,4.8,0,0,1,.384.4.754.754,0,0,0,.755.315,5.425,5.425,0,0,1,.652,0v.223c0,.247,0,.494,0,.742a.264.264,0,0,0,.087.216c.182.174.357.354.534.532.026.026.051.054.086.091C1017.994,151.109,1017.79,151.313,1017.583,151.513Z" fill="#989898"/>
    <path id="Path_2895" data-name="Path 2895" d="M1009.228,145.5c.719,0,1.439,0,2.159,0,.036,0,.072,0,.112-.006v-1.19a.531.531,0,0,0-.06-.007c-.75,0-1.5,0-2.249,0-.083,0-.088.041-.087.1,0,.326,0,.653,0,.979C1009.1,145.481,1009.131,145.5,1009.228,145.5Z" fill="#989898"/>
  </g>
</svg>
