<svg xmlns="http://www.w3.org/2000/svg" width="18.101" height="18" viewBox="0 0 18.101 18">
  <g id="Group_53" data-name="Group 53" transform="translate(-140.63 -930.015)">
    <path id="Path_35" data-name="Path 35" d="M145.546,937.447a23.7,23.7,0,0,0,3.085,5.263c.33.448.681.882,1.044,1.351a30.028,30.028,0,0,0,3.56-5.342,10.476,10.476,0,0,0,1.143-3.381,4.735,4.735,0,1,0-9.431-.476A7.429,7.429,0,0,0,145.546,937.447Zm4.143-5.317a2.334,2.334,0,1,1-2.342,2.339A2.33,2.33,0,0,1,149.689,932.13Z" fill="#d10023"/>
    <path id="Path_36" data-name="Path 36" d="M158.283,944.269a4.528,4.528,0,0,0-1.077-.71,14.457,14.457,0,0,0-4.7-1.136.331.331,0,0,0-.241.127c-.284.367-.554.746-.828,1.121-.033.046-.058.1-.093.155a15.048,15.048,0,0,1,5.684,1.311c-.21.108-.352.192-.5.257a14.385,14.385,0,0,1-4.381.991,26.29,26.29,0,0,1-4.274.052,17.424,17.424,0,0,1-4.178-.723c-.445-.141-.872-.342-1.307-.515l.014-.1a15.187,15.187,0,0,1,5.631-1.276c-.317-.436-.626-.85-.922-1.274a.274.274,0,0,0-.292-.134,17.637,17.637,0,0,0-3.851.8,5.124,5.124,0,0,0-1.857,1,1.1,1.1,0,0,0,0,1.812,4.737,4.737,0,0,0,1.127.72,15.171,15.171,0,0,0,4.946,1.139,26.994,26.994,0,0,0,5.005,0,17.421,17.421,0,0,0,4.25-.849,4.922,4.922,0,0,0,1.864-1.035A1.084,1.084,0,0,0,158.283,944.269Z" fill="#d10023"/>
    <path id="Path_37" data-name="Path 37" d="M149.652,935.611a1.145,1.145,0,1,0-1.116-1.161A1.135,1.135,0,0,0,149.652,935.611Z" fill="#d10023"/>
  </g>
</svg>
