<svg xmlns="http://www.w3.org/2000/svg" width="18.077" height="18.077" viewBox="0 0 18.077 18.077">
    <g id="Group_55" data-name="Group 55" transform="translate(-140.586 -906.938)">
        <g id="Rectangle_58" data-name="Rectangle 58" transform="translate(140.586 906.938)" fill="none" stroke="#d10023" stroke-miterlimit="10" stroke-width="1">
            <rect width="18.077" height="18.077" rx="9.038" stroke="none"/>
            <rect x="0.5" y="0.5" width="17.077" height="17.077" rx="8.538" fill="none"/>
        </g>
        <g id="Group_54" data-name="Group 54">
            <path id="Path_38" data-name="Path 38" d="M153.355,910.484a.944.944,0,0,0-1.044.314,3.946,3.946,0,0,0-.259.382q-1.159,1.918-2.316,3.838c-.013.023-.029.044-.047.07-.022-.031-.038-.054-.053-.078q-1.2-1.874-2.392-3.747a6.3,6.3,0,0,0-.384-.525A.858.858,0,0,0,145.4,911a.944.944,0,0,0,.068.716c.068.127.14.253.218.375q1.108,1.745,2.22,3.487c.018.028.034.057.059.1h-.117c-.274,0-.548,0-.821,0a1.68,1.68,0,0,0-.639.1.568.568,0,0,0-.367.412.6.6,0,0,0,.418.752,2.258,2.258,0,0,0,.584.085c.513.011,1.026,0,1.539,0h.117v1.055h-.107c-.519,0-1.039-.009-1.558,0a2.227,2.227,0,0,0-.6.1.562.562,0,0,0-.407.591.55.55,0,0,0,.419.571,2.325,2.325,0,0,0,.592.091c.519.012,1.039,0,1.558,0h.109v.123c0,.251,0,.5.015.755a1.783,1.783,0,0,0,.213.785.921.921,0,0,0,1.546-.025,1.424,1.424,0,0,0,.16-.47c.037-.349.04-.7.056-1.053,0-.037,0-.073,0-.115h1.684a1.494,1.494,0,0,0,.671-.13.543.543,0,0,0,.311-.4.6.6,0,0,0-.454-.747,2.239,2.239,0,0,0-.558-.075c-.516-.01-1.033,0-1.549,0h-.1v-1.055h.123c.554,0,1.108,0,1.662,0a1.177,1.177,0,0,0,.607-.15.614.614,0,0,0-.021-1.055,1.315,1.315,0,0,0-.5-.131c-.345-.023-.692-.014-1.038-.017H151.4c.025-.044.04-.074.057-.1q1.035-1.707,2.069-3.414a3.924,3.924,0,0,0,.275-.526A.817.817,0,0,0,153.355,910.484Z" fill="#d10023"/>
        </g>
    </g>
</svg>
