<svg xmlns="http://www.w3.org/2000/svg" viewBox="0 0 16 16"><defs><style>.cls-1{fill:#fff;}.cls-2{fill:#ccc;}</style></defs><g id="Layer_2" data-name="Layer 2"><g id="Layer_1-2" data-name="Layer 1"><path class="cls-1" d="M15.77,6.1A7.92,7.92,0,0,0,11.27.7,7.73,7.73,0,0,0,7.33,0a7.87,7.87,0,0,0-2.44.6A8,8,0,0,0,.08,6.89,7.7,7.7,0,0,0,.21,9.8,7.89,7.89,0,0,0,3.3,14.46,7.68,7.68,0,0,0,7.15,16l.49.05h.72l.5-.05a7.68,7.68,0,0,0,3.22-1.07A8,8,0,0,0,15.8,9.79,6.66,6.66,0,0,0,16,8.45s0-.06,0-.09V7.64s0-.06,0-.09A7.16,7.16,0,0,0,15.77,6.1Z"/><path class="cls-2" d="M6.69,8.1,6.55,8l.14-.12L9.46,5.12,9.55,5a.54.54,0,1,0-.83-.7L5.5,7.55a.56.56,0,0,0,0,.9l2.94,2.94c.12.12.23.24.35.34a.53.53,0,0,0,.88-.29.55.55,0,0,0-.18-.54Z"/></g></g></svg>
