<svg xmlns="http://www.w3.org/2000/svg" width="30" height="28.635" viewBox="0 0 30 28.635">
  <g id="Group_1136" data-name="Group 1136" transform="translate(-355.006 -264.131)">
    <path id="Path_1057" data-name="Path 1057" d="M356.382,277.985A28.352,28.352,0,0,0,360.8,284.4a60.5,60.5,0,0,0,8.6,7.92c.2.153.4.3.6.445.1-.073.181-.129.258-.187a63.683,63.683,0,0,0,6.975-6.066,37.587,37.587,0,0,0,5.142-6.289,16.425,16.425,0,0,0,2.479-5.984,8.5,8.5,0,0,0-8.2-10.072,7.989,7.989,0,0,0-5.592,2.015c-.375.32-.7.7-1.059,1.056-.081-.086-.136-.14-.186-.2a8.068,8.068,0,0,0-2.5-1.949,8.45,8.45,0,0,0-12.082,5.6c-.107.433-.157.88-.233,1.32v1.347a.522.522,0,0,1,.049.133A13.068,13.068,0,0,0,356.382,277.985Z" fill="#d10023"/>
    <g id="Group_1135" data-name="Group 1135">
      <path id="Path_1058" data-name="Path 1058" d="M356.382,277.985A28.352,28.352,0,0,0,360.8,284.4a60.5,60.5,0,0,0,8.6,7.92c.2.153.4.3.6.445.1-.073.181-.129.258-.187a63.683,63.683,0,0,0,6.975-6.066,37.587,37.587,0,0,0,5.142-6.289,16.425,16.425,0,0,0,2.479-5.984,8.5,8.5,0,0,0-8.2-10.072,7.989,7.989,0,0,0-5.592,2.015c-.375.32-.7.7-1.059,1.056-.081-.086-.136-.14-.186-.2a8.068,8.068,0,0,0-2.5-1.949,8.45,8.45,0,0,0-12.082,5.6c-.107.433-.157.88-.233,1.32v1.347a.522.522,0,0,1,.049.133A13.068,13.068,0,0,0,356.382,277.985ZM357,272.3a6.476,6.476,0,0,1,12.091-2.913c.307.519.591,1.052.918,1.636.293-.53.554-1.008.821-1.481a6.336,6.336,0,0,1,3.962-3.163,6.2,6.2,0,0,1,6.41,1.748,6.51,6.51,0,0,1,1.553,6.516,16.585,16.585,0,0,1-2.709,5.506,45.415,45.415,0,0,1-7.67,8.183c-.77.66-1.556,1.3-2.354,1.968-.456-.365-.9-.711-1.334-1.071a56.558,56.558,0,0,1-5.613-5.265,28.669,28.669,0,0,1-4.868-6.774A10.336,10.336,0,0,1,357,272.3Z" fill="#d10023"/>
    </g>
  </g>
</svg>
