<svg xmlns="http://www.w3.org/2000/svg" width="17.999" height="18" viewBox="0 0 17.999 18">
  <path id="Path_2906" data-name="Path 2906" d="M1012.189,74.839a9.168,9.168,0,0,0,5.846-4.584,8.657,8.657,0,0,0,1.034-4.4,8.534,8.534,0,0,0-.686-3.173,9.2,9.2,0,0,0-5-4.931,8.877,8.877,0,0,0-1.872-.527,8.8,8.8,0,0,0-5.131.7,9.127,9.127,0,0,0-3.6,2.977,8.881,8.881,0,0,0-1.51,3.408,8.271,8.271,0,0,0-.169,1.272c0,.069-.019.137-.028.206v.626c.01.074.024.147.029.222a8.5,8.5,0,0,0,.338,1.931,9.05,9.05,0,0,0,2.871,4.39,8.946,8.946,0,0,0,3.539,1.852,8.044,8.044,0,0,0,1.261.233c.2.02.4.034.6.051a.614.614,0,0,1,.07.013h.611c.1-.01.19-.023.286-.029A8.589,8.589,0,0,0,1012.189,74.839Zm-8.474-3.787-.06-.076a7.922,7.922,0,0,1-1.329-2.733,8.156,8.156,0,0,1-.246-1.414,8.048,8.048,0,0,1-.008-1.363,7.919,7.919,0,0,1,1.908-4.642,7.8,7.8,0,0,1,3.236-2.248,8.032,8.032,0,0,1,1.8-.44,8.222,8.222,0,0,1,1.739-.041,7.9,7.9,0,0,1,4.467,1.787,7.809,7.809,0,0,1,2.579,3.935,8.094,8.094,0,0,1,.293,1.648,8.254,8.254,0,0,1-.022,1.524,7.963,7.963,0,0,1-1.566,3.993c-.015.021-.032.041-.055.068a7.285,7.285,0,0,0-4.21-3.643c.155-.115.31-.22.454-.339a4.216,4.216,0,0,0,1.479-2.4,3.834,3.834,0,0,0-.36-2.642,4.272,4.272,0,0,0-2.618-2.189,3.733,3.733,0,0,0-1.421-.149,4.073,4.073,0,0,0-2.27.924,4.2,4.2,0,0,0-1.477,2.286,3.9,3.9,0,0,0,.408,2.932,4.324,4.324,0,0,0,1.43,1.527l.053.035c.005,0,.007.008.014.015A7.277,7.277,0,0,0,1003.715,71.052Zm7.315-4.119a3.325,3.325,0,0,1-2.175-.094,3,3,0,0,1-1.9-2.214,3.275,3.275,0,0,1,.141-2.011,3,3,0,0,1,2.191-1.884,3.285,3.285,0,0,1,2.042.142,3.025,3.025,0,0,1,1.887,2.245c.018.079.033.157.044.234.005.029.008.058.012.087v.01a3.646,3.646,0,0,1,.022.4,3.5,3.5,0,0,1-.18,1.111,3.12,3.12,0,0,1-.291.617A3.006,3.006,0,0,1,1011.03,66.933Zm-1.217,7.195a8.125,8.125,0,0,1-2.678-.534,7.856,7.856,0,0,1-2.658-1.69c-.058-.056-.059-.057-.028-.129a5.954,5.954,0,0,1,3.41-3.344,5.83,5.83,0,0,1,1.557-.367,6.137,6.137,0,0,1,3.459.621,5.922,5.922,0,0,1,2.738,2.863c.045.1.086.195.135.307-.182.16-.354.321-.536.47a7.872,7.872,0,0,1-3.131,1.566A8.326,8.326,0,0,1,1009.813,74.128Z" transform="translate(-1001.072 -57.105)" fill="#989898"/>
</svg>
