<svg xmlns="http://www.w3.org/2000/svg" width="18.001" height="17.999" viewBox="0 0 18.001 17.999">
  <g id="Group_2946" data-name="Group 2946" transform="translate(-1002.514 -97.105)">
    <g id="Group_2945" data-name="Group 2945">
      <path id="Path_2897" data-name="Path 2897" d="M1002.933,114.17a2.363,2.363,0,0,0,1.946.931c1.243.006,2.485,0,3.728,0,.03,0,.059,0,.088,0v-1.079h-2.99a2.424,2.424,0,0,1-.732-.111,1.912,1.912,0,0,1-1.373-1.79q0-6.015,0-12.029a1.7,1.7,0,0,1,.328-1.022,2.081,2.081,0,0,1,1.779-.877q5.807,0,11.615,0a2.589,2.589,0,0,1,.519.053,1.945,1.945,0,0,1,1.59,1.938c-.015.608,0,1.218,0,1.827v10.063a1.818,1.818,0,0,1-.71,1.476,2.122,2.122,0,0,1-1.37.469h-3.016V115.1l.044,0q1.928,0,3.856,0a2.18,2.18,0,0,0,.9-.193,2.081,2.081,0,0,0,1.376-1.969q.016-6.835,0-13.672a1.911,1.911,0,0,0-.083-.568,2.216,2.216,0,0,0-1.659-1.52c-.126-.034-.256-.05-.385-.074h-13.737a5.154,5.154,0,0,0-.569.129,2.188,2.188,0,0,0-1.515,1.6c-.019.076-.031.154-.047.232v14.068a.231.231,0,0,1,.016.051A1.956,1.956,0,0,0,1002.933,114.17Z" fill="#989898"/>
      <path id="Path_2898" data-name="Path 2898" d="M1010.937,101.714a2.753,2.753,0,0,0-2.964-1.032,2.9,2.9,0,0,0-1.356,4.693,2.747,2.747,0,0,0,2.963.828A2.909,2.909,0,0,0,1010.937,101.714Zm-1.8,3.422a1.686,1.686,0,0,1-2.089-1.36c-.016-.1-.022-.206-.033-.31a1.723,1.723,0,0,1,1.343-1.7,1.683,1.683,0,0,1,1.985,1.263A1.729,1.729,0,0,1,1009.14,105.136Z" fill="#989898"/>
      <path id="Path_2899" data-name="Path 2899" d="M1018.268,104.5h-4.492v1.295h4.492Z" fill="#989898"/>
      <path id="Path_2900" data-name="Path 2900" d="M1006.989,106.488q-.773.264-1.544.526a.11.11,0,0,0-.088.107c-.018.152-.046.3-.07.453l-.414,2.635c-.033.211-.065.421-.1.638l1.117.192c.008-.03.015-.051.018-.071q.213-1.5.425-3.005a.107.107,0,0,1,.084-.1c.218-.068.435-.143.652-.215l.664-.222-.338-1.075Z" fill="#989898"/>
      <path id="Path_2901" data-name="Path 2901" d="M1013.777,108.406h4.491v-1.294h-4.491Z" fill="#989898"/>
      <path id="Path_2902" data-name="Path 2902" d="M1018.267,109.721h-4.49v1.294h4.49Z" fill="#989898"/>
      <path id="Path_2903" data-name="Path 2903" d="M1011.049,108.008c.086.562.175,1.123.263,1.685.069.443.139.886.211,1.346l1.087-.155c-.049-.306-.095-.6-.14-.885q-.223-1.422-.446-2.844a.116.116,0,0,0-.091-.106c-.472-.159-.942-.321-1.413-.482l-.536-.181-.335,1.074.114.04c.4.133.793.267,1.191.4A.12.12,0,0,1,1011.049,108.008Z" fill="#989898"/>
      <path id="Path_2904" data-name="Path 2904" d="M1012.505,113.9q-.992,0-1.983,0a.742.742,0,0,0-.182.021.6.6,0,0,0,.136,1.182c.346.005.692,0,1.038,0s.685,0,1.028,0a.572.572,0,0,0,.531-.331A.6.6,0,0,0,1012.505,113.9Z" fill="#989898"/>
      <path id="Path_2905" data-name="Path 2905" d="M1016.017,101.889h-2.24v1.291h2.24Z" fill="#989898"/>
    </g>
  </g>
</svg>
