<?xml version="1.0"?>
<svg xmlns="http://www.w3.org/2000/svg" width="20" height="16.241" viewBox="0 0 20 16.241">
  <g id="ic_eyes" transform="translate(-935.06 1984.773)">
    <path id="Path_2296" d="M943.205-1970.585a9.626,9.626,0,0,0,1.865.181,10.071,10.071,0,0,0,3.983-.845,10.072,10.072,0,0,1-3.984.845A9.624,9.624,0,0,1,943.205-1970.585Z" fill="#cbcbcb"/>
    <path id="Path_2297" d="M938.517-1972.741c.335.245.681.474,1.032.717l-1.662,1.658c-.253.253-.509.5-.758.76a.617.617,0,0,0-.01.891.622.622,0,0,0,.892-.011c.057-.053.111-.11.166-.165q5.52-5.52,11.039-11.039c1.233-1.233,2.469-2.463,3.7-3.7a1.007,1.007,0,0,0,.25-.445.575.575,0,0,0-.332-.626.615.615,0,0,0-.747.143q-1.264,1.262-2.525,2.527a1.036,1.036,0,0,0-.118.18,1.5,1.5,0,0,0-.224-.118,10.021,10.021,0,0,0-3.958-.924,10.208,10.208,0,0,0-5.24,1.355,16.805,16.805,0,0,0-4.346,3.61,2.352,2.352,0,0,0-.611,1.045v.468a3.773,3.773,0,0,0,.39.772A17.256,17.256,0,0,0,938.517-1972.741Zm4.378-2.691a2.433,2.433,0,0,1,.365-2.955,2.447,2.447,0,0,1,3.015-.426Zm-6.488-1.435a15.1,15.1,0,0,1,4.664-3.813,8.832,8.832,0,0,1,4.173-.966,8.725,8.725,0,0,1,3.09.656c.035.015.068.036.087.046l-1.212,1.213a3.774,3.774,0,0,0-4.842.468,3.769,3.769,0,0,0-.391,4.763l-1.533,1.535a13.008,13.008,0,0,1-1.881-1.323,18.259,18.259,0,0,1-2.129-2.115C936.272-1976.589,936.261-1976.7,936.407-1976.867Z" fill="#cbcbcb"/>
    <path id="Path_2298" d="M953.29-1979.117c-.413-.4-.856-.779-1.3-1.144a.618.618,0,0,0-1.019.406.66.66,0,0,0,.3.616,17.842,17.842,0,0,1,2.392,2.32c.183.211.191.314.022.509a17.341,17.341,0,0,1-2.784,2.639,9.239,9.239,0,0,1-7.71,1.912.614.614,0,0,0-.734.5.627.627,0,0,0,.489.714c.087.02.175.038.263.056a9.624,9.624,0,0,0,1.864.181,10.072,10.072,0,0,0,3.984-.845,11.547,11.547,0,0,0,1.041-.514,16.732,16.732,0,0,0,4.6-3.91,1.479,1.479,0,0,0-.034-2C954.217-1978.167,953.764-1978.654,953.29-1979.117Z" fill="#cbcbcb"/>
    <path id="Path_2299" d="M945.113-1972.905a3.765,3.765,0,0,0,3.687-3.634.64.64,0,0,0-.608-.733.641.641,0,0,0-.641.7,2.509,2.509,0,0,1-2.459,2.416.632.632,0,0,0-.659.625A.632.632,0,0,0,945.113-1972.905Z" fill="#cbcbcb"/>
  </g>
</svg>
