<?xml version="1.0"?>
<svg xmlns="http://www.w3.org/2000/svg" width="20" height="14.994" viewBox="0 0 20 14.994">
  <g id="ic_mail" transform="translate(-488.362 2064.202)">
    <path id="Path_2300" d="M505.872-2064.2H490.854a2.48,2.48,0,0,0-2.492,2.49v9.955a2.485,2.485,0,0,0,2.027,2.511.42.42,0,0,1,.083.038h15.781c.109-.033.218-.063.326-.1a2.487,2.487,0,0,0,1.743-1.908.8.8,0,0,1,.04-.1v-10.777c-.037-.121-.073-.243-.112-.365A2.478,2.478,0,0,0,505.872-2064.2Zm-15.187,1.274h15.353l.021.046-7.7,6.595-7.689-6.587Zm-1.03,11.463c-.018-.17-.041-.291-.041-.413q0-3.8,0-7.609c0-.7,0-1.392,0-2.088a4.8,4.8,0,0,1,.056-.5l5.3,4.537Zm16.121,1.005q-7.408,0-14.818,0a4.329,4.329,0,0,1-.456-.054l5.424-6.2,1.525,1.3.4.344a.661.661,0,0,0,1.019.005l1.763-1.511c.053-.046.109-.089.17-.139l5.419,6.191A3.948,3.948,0,0,1,505.776-2050.46Zm1.335-1.4c0,.114-.019.228-.029.343l-.053.01-5.272-6.023,5.3-4.538c.022.214.053.382.053.55q0,3.492,0,6.985Q507.112-2053.2,507.111-2051.864Z" fill="#999"/>
  </g>
</svg>
