<svg xmlns="http://www.w3.org/2000/svg" width="19.999" height="20.002" viewBox="0 0 19.999 20.002">
  <path id="ic_user" d="M407.5,363.135a9.907,9.907,0,0,0-6.2-7.755c-.083-.035-.163-.077-.256-.121a5.5,5.5,0,0,0,.578-7.946,5.415,5.415,0,0,0-7.38-.557,5.15,5.15,0,0,0-1.978,3.4,5.445,5.445,0,0,0,1.973,5.108,9.982,9.982,0,0,0-5.034,4.048,10.261,10.261,0,0,0-1.544,6.23h19.585c.132,0,.264.011.4.017V364.2C407.6,363.844,407.569,363.486,407.5,363.135ZM393.979,350.99a3.657,3.657,0,1,1,3.647,3.673A3.638,3.638,0,0,1,393.979,350.99Zm-4.5,12.759A8.215,8.215,0,0,1,401.47,357.4a8.005,8.005,0,0,1,4.345,6.345Z" transform="translate(-387.644 -345.562)" fill="#999"/>
</svg>
